<?xml version="1.0" standalone="no"?>
<!DOCTYPE svg PUBLIC "-//W3C//DTD SVG 20010904//EN"
 "http://www.w3.org/TR/2001/REC-SVG-20010904/DTD/svg10.dtd">
<svg version="1.0" xmlns="http://www.w3.org/2000/svg"
 width="910.000000pt" height="671.000000pt" viewBox="0 0 910.000000 671.000000"
 preserveAspectRatio="xMidYMid meet">
<g transform="translate(0.000000,671.000000) scale(0.100000,-0.100000)"
fill="#C62129" stroke="none">
<path d="M7222 6549 c-23 -9 -26 -36 -3 -31 6 1 11 -2 11 -8 0 -5 -7 -10 -15
-10 -8 0 -15 5 -15 11 0 5 -5 7 -12 3 -7 -4 -8 -3 -4 4 9 15 -2 15 -43 1 -34
-12 -42 -29 -13 -30 9 0 12 -3 6 -5 -7 -3 -10 -14 -7 -24 3 -12 0 -20 -6 -20
-7 0 -10 4 -6 10 11 18 -18 50 -40 44 -28 -9 -28 -10 -16 -32 8 -16 7 -21 -5
-26 -9 -3 -12 -2 -9 5 4 5 4 17 1 26 -5 11 -10 13 -20 4 -7 -6 -16 -8 -19 -4
-4 3 -7 1 -7 -6 0 -7 -4 -10 -9 -6 -5 3 -12 1 -16 -5 -10 -16 27 -11 47 7 11
9 18 11 18 5 0 -7 -5 -12 -11 -12 -6 0 -9 -6 -6 -12 3 -11 -28 -48 -40 -48 -2
0 -9 14 -14 30 -10 28 -29 41 -29 20 0 -5 5 -10 10 -10 6 0 10 -6 10 -14 0
-17 -50 -18 -57 -1 -6 17 -63 -1 -59 -18 1 -7 1 -9 -1 -4 -8 13 -32 8 -98 -20
-54 -23 -65 -32 -66 -53 -2 -24 -2 -24 -6 -2 -3 14 -12 22 -24 22 -11 0 -18
-4 -15 -8 3 -5 -22 -16 -55 -26 -51 -14 -62 -21 -71 -46 -5 -17 -14 -30 -19
-30 -6 0 -5 -9 1 -21 7 -11 9 -24 5 -27 -3 -3 -8 4 -12 16 -3 12 -10 19 -16
15 -5 -3 -7 -1 -4 4 4 6 0 14 -9 17 -24 9 -29 7 -17 -5 6 -6 9 -18 6 -27 -4
-10 -2 -13 5 -8 7 4 12 3 12 -2 0 -15 -58 -33 -66 -21 -3 6 -17 8 -29 5 -13
-3 -27 -2 -30 4 -3 5 -11 10 -16 10 -6 0 -7 -5 -4 -10 4 -6 3 -9 -2 -8 -4 1
-18 -3 -30 -10 -18 -10 -21 -9 -18 6 1 10 9 16 20 14 10 -2 14 1 10 8 -7 11
-26 8 -76 -11 -26 -10 -34 -37 -14 -51 6 -5 4 -12 -5 -18 -9 -5 -16 -6 -18 0
-2 5 -10 6 -19 3 -13 -5 -14 -3 -3 17 13 25 17 24 -56 7 -12 -3 -30 -10 -40
-16 -11 -5 -40 -15 -66 -23 -27 -7 -48 -16 -48 -19 0 -4 -10 -9 -22 -11 -13
-2 -23 -10 -23 -18 -1 -23 -15 -60 -25 -60 -4 0 -6 8 -3 19 3 11 -2 21 -12 25
-9 3 -13 2 -10 -4 3 -6 2 -10 -4 -10 -5 0 -12 6 -14 13 -4 9 -6 9 -6 -1 -1 -7
-5 -11 -10 -7 -6 3 -15 -5 -22 -17 -11 -21 -11 -22 4 -10 13 11 15 10 10 -7
-3 -12 0 -28 7 -36 19 -23 3 -18 -20 7 l-20 22 0 -27 c0 -14 -5 -29 -12 -33
-7 -5 -8 -3 -3 6 6 10 4 12 -8 7 -10 -4 -20 0 -25 10 -6 10 -16 13 -31 8 -12
-4 -19 -11 -15 -18 5 -9 4 -9 -6 0 -14 13 -5 33 16 33 8 0 14 4 14 9 0 7 -84
-16 -130 -36 -8 -3 -19 -5 -24 -4 -4 1 -14 -4 -22 -10 -8 -6 -14 -8 -14 -5 0
4 -6 1 -14 -6 -19 -18 -9 -30 15 -18 15 9 19 7 19 -5 0 -11 -7 -14 -25 -11
-14 3 -25 0 -25 -5 0 -5 5 -9 11 -9 5 0 8 -4 4 -9 -3 -6 -15 -8 -26 -6 -13 3
-29 -4 -41 -18 -11 -12 -17 -16 -13 -9 10 20 -16 14 -36 -10 -16 -17 -19 -18
-19 -5 0 10 -6 17 -12 18 -7 0 -4 4 7 9 16 7 17 9 3 9 -9 1 -19 7 -22 14 -4 6
-4 -3 -1 -22 4 -29 3 -33 -14 -28 -14 3 -19 0 -16 -13 4 -18 -41 -77 -51 -67
-9 9 4 39 15 33 5 -3 11 1 15 9 4 10 0 14 -14 12 -19 -3 -52 -27 -37 -27 3 0
2 -11 -3 -25 -7 -19 -6 -32 6 -50 14 -22 14 -23 -4 -18 -23 6 -32 40 -21 71 5
13 4 22 -2 22 -5 0 -12 -7 -15 -15 -4 -8 -10 -12 -15 -9 -5 3 -9 0 -9 -7 0
-10 -3 -10 -11 -2 -9 9 -8 16 4 27 9 9 20 16 26 16 6 0 8 7 5 15 -5 12 -10 10
-25 -8 -15 -18 -18 -19 -19 -5 0 12 -6 16 -21 13 -25 -5 -38 -15 -20 -15 7 0
9 -5 6 -11 -4 -6 1 -16 11 -24 11 -7 16 -17 12 -21 -4 -4 -14 -1 -23 6 -12 10
-15 10 -15 -3 0 -21 19 -26 52 -13 31 11 50 1 28 -15 -13 -10 -13 -10 0 -6 8
2 23 -6 33 -19 17 -23 17 -24 0 -25 -14 0 -15 -2 -3 -6 8 -3 27 -17 41 -30 15
-14 29 -21 32 -16 5 9 -9 53 -17 53 -3 0 -3 -7 1 -16 5 -14 3 -14 -16 -2 -20
12 -20 14 -4 26 25 18 40 15 47 -11 3 -14 13 -23 26 -23 25 0 25 5 0 14 -14 5
-17 11 -10 22 7 12 12 11 29 -4 24 -21 27 -42 9 -49 -7 -2 -5 -3 4 -2 9 2 19
-2 22 -9 3 -6 3 0 0 13 -4 14 -1 27 7 32 7 4 10 11 6 16 -5 4 -12 1 -18 -7 -7
-12 -10 -11 -15 8 -4 12 -13 22 -20 22 -21 0 -22 59 -1 72 19 12 27 9 27 -8 0
-9 -5 -12 -12 -8 -7 4 -10 4 -6 -1 4 -4 2 -17 -4 -29 -9 -17 -8 -19 3 -8 21
20 38 15 31 -10 -4 -17 -2 -20 11 -15 9 3 19 2 22 -3 3 -5 12 -7 20 -3 10 3
15 -1 15 -14 0 -19 18 -43 32 -43 19 0 47 45 44 70 -2 17 2 27 10 27 9 0 10
-6 5 -16 -5 -9 -6 -22 -3 -30 2 -7 -2 -17 -9 -22 -11 -7 -10 -9 3 -9 10 0 20
10 24 24 4 17 15 26 36 30 17 3 33 4 36 1 3 -3 -3 -5 -13 -5 -24 0 -10 -13 16
-15 12 -1 23 4 26 12 3 7 9 10 14 7 5 -3 9 0 9 5 0 6 3 10 8 9 20 -6 72 13 72
27 0 8 5 15 11 15 5 0 7 4 4 10 -3 6 1 7 9 4 9 -3 16 -11 16 -18 0 -6 7 -3 15
8 8 11 21 16 30 13 8 -4 15 -1 15 5 0 7 6 3 14 -7 14 -19 15 -19 26 5 7 16 20
26 37 27 14 0 28 5 32 10 3 4 19 9 35 10 16 1 33 8 38 15 4 7 8 10 8 6 0 -4
43 8 95 27 52 19 95 32 95 28 0 -3 8 3 18 14 9 11 22 18 28 16 6 -2 24 2 40 8
16 7 32 12 37 11 4 -1 7 6 7 15 0 12 3 14 11 6 15 -15 237 68 238 90 1 4 4 6
9 5 4 -2 6 -6 5 -9 -1 -3 25 4 57 15 32 11 57 23 55 26 -2 3 11 6 28 7 17 1
35 8 41 14 8 9 7 10 -3 4 -10 -6 -12 -4 -7 4 4 7 13 10 19 8 7 -2 24 10 40 26
27 29 28 29 47 12 13 -11 20 -14 20 -6 0 7 4 10 9 7 5 -4 49 8 98 24 48 17 93
32 98 33 12 2 25 18 25 32 0 5 -5 4 -12 -3 -15 -15 -38 -16 -38 -1 0 6 7 9 15
6 8 -4 17 -2 20 4 4 5 11 7 16 4 5 -4 15 -3 22 2 20 12 37 12 37 0 0 -9 2 -9
8 0 6 9 83 30 130 35 14 2 15 -1 -43 156 -24 66 -49 118 -56 119 -8 1 -25 -2
-37 -8z"/>
<path d="M7360 5949 c-8 -4 -36 -15 -62 -25 -27 -9 -48 -20 -48 -24 0 -4 -13
-7 -28 -7 -31 0 -133 -44 -135 -59 -1 -5 -6 -8 -10 -6 -4 1 -3 -7 3 -18 9 -16
8 -20 -5 -20 -13 0 -19 11 -16 32 1 9 -38 1 -53 -12 -7 -5 -15 -7 -19 -4 -9 9
-47 -16 -47 -31 0 -8 -4 -15 -10 -15 -5 0 -6 -8 -3 -17 6 -15 5 -16 -9 -3 -16
14 -16 16 0 28 14 11 14 12 0 12 -9 0 -18 -7 -22 -15 -3 -8 -14 -15 -25 -15
-18 0 -37 -27 -26 -38 3 -3 5 1 5 9 1 18 38 -65 43 -94 4 -28 38 -97 48 -97 4
0 9 9 12 19 5 20 47 49 47 33 0 -6 -9 -12 -20 -15 -11 -3 -20 -10 -20 -17 0
-13 43 -3 48 11 2 5 15 9 28 9 14 0 24 6 24 14 0 9 7 12 20 9 11 -3 38 2 61
11 22 9 45 13 51 10 7 -4 8 -2 4 4 -5 8 0 12 13 12 11 0 26 7 34 15 8 8 17 12
19 10 5 -5 228 74 241 85 7 6 -1 31 -36 107 -5 12 -15 19 -21 16 -6 -4 -5 1 3
10 11 15 11 17 -2 17 -8 0 -18 7 -21 16 -5 14 -4 15 9 4 9 -8 15 -8 15 -2 0 6
-5 14 -10 17 -6 4 -7 12 -4 18 4 7 4 9 0 5 -4 -3 -20 -3 -34 2 -15 4 -34 4
-42 -1z"/>
<path d="M4952 5722 c-14 -4 -1 -45 23 -74 22 -27 29 -48 17 -48 -13 0 -43 36
-36 43 7 7 -15 31 -36 40 -12 4 -11 6 3 6 10 1 16 5 13 10 -9 15 -45 1 -39
-15 3 -8 1 -14 -3 -15 -44 -4 -59 -12 -49 -28 4 -8 15 -6 35 4 25 13 29 13 34
-1 5 -12 1 -14 -16 -8 -21 6 -21 6 -5 -10 22 -22 22 -30 0 -21 -33 13 -54 14
-51 3 2 -6 15 -13 28 -15 34 -5 38 -13 7 -13 -26 0 -45 -29 -32 -49 3 -5 1
-13 -5 -16 -6 -4 -10 -3 -9 2 3 12 -13 126 -18 137 -3 4 -9 2 -14 -5 -7 -11
-11 -12 -17 -1 -6 8 -9 0 -10 -24 -2 -44 -21 -62 -39 -37 -16 20 -17 47 -3 38
6 -4 8 -10 6 -14 -3 -4 1 -8 9 -8 8 0 15 7 15 14 0 8 -4 12 -9 8 -5 -3 -12 -1
-15 4 -12 19 -45 -1 -52 -33 -4 -17 -9 -25 -11 -18 -3 6 -9 10 -14 7 -5 -4 -6
1 -3 9 3 9 2 16 -4 16 -22 0 -42 -13 -42 -27 0 -8 -4 -12 -9 -9 -20 12 -247
-61 -274 -88 -6 -7 -16 -14 -22 -15 -5 -2 -9 -7 -7 -12 1 -5 -7 -4 -18 3 -15
10 -22 10 -32 0 -6 -6 -21 -12 -33 -12 -11 0 -31 -7 -43 -16 -12 -8 -22 -12
-22 -8 0 5 -5 3 -12 -4 -7 -7 -21 -12 -33 -12 -11 -1 -38 -9 -60 -20 -22 -11
-47 -19 -56 -20 -9 0 -19 -3 -23 -7 -3 -4 -12 -8 -19 -9 -11 -2 -186 -67 -254
-95 -32 -13 -49 -37 -18 -25 8 3 15 1 15 -4 0 -13 -23 -13 -36 0 -8 8 -75 -6
-124 -27 -8 -3 -19 -7 -25 -9 -35 -8 -211 -76 -222 -85 -7 -6 -13 -8 -13 -4 0
4 -7 2 -15 -5 -8 -7 -15 -9 -15 -4 0 5 -4 3 -9 -4 -4 -7 -19 -14 -32 -16 -27
-4 -56 -13 -81 -27 -10 -5 -24 -9 -32 -9 -7 0 -25 -6 -39 -13 -20 -11 -23 -17
-15 -25 9 -9 9 -12 1 -12 -7 0 -14 4 -18 9 -7 12 -33 7 -89 -17 -24 -11 -47
-18 -50 -14 -3 3 -6 0 -6 -7 0 -7 -4 -10 -9 -7 -11 7 -101 -26 -101 -37 0 -4
-4 -6 -9 -3 -5 4 -43 -7 -85 -23 -42 -16 -76 -27 -76 -25 0 2 -17 -4 -37 -15
-40 -20 -300 -109 -343 -117 -13 -3 -40 -13 -60 -24 -19 -10 -78 -34 -130 -54
-52 -19 -142 -53 -200 -75 -58 -22 -170 -63 -250 -91 -80 -28 -151 -56 -158
-62 -7 -6 -22 -12 -35 -13 -37 -4 -38 -5 -32 -14 3 -5 0 -13 -6 -17 -8 -4 -9
-3 -5 4 12 19 -19 14 -79 -13 -30 -13 -56 -24 -58 -24 -13 3 -54 -27 -51 -36
3 -7 1 -16 -5 -20 -6 -3 -11 2 -11 12 -1 17 -1 17 -11 -1 -9 -14 -13 -15 -19
-6 -13 21 -65 -2 -64 -28 1 -16 -4 -22 -20 -21 -11 0 -15 3 -8 6 6 2 10 9 6
14 -9 16 -24 10 -24 -10 0 -25 -16 -36 -24 -15 -3 8 -2 12 4 9 6 -3 10 -1 10
4 0 14 -17 14 -25 1 -4 -6 -10 -8 -15 -5 -5 3 -11 1 -15 -5 -3 -5 -17 -10 -30
-10 -13 0 -26 -4 -30 -10 -3 -5 -12 -7 -20 -4 -7 3 -18 -4 -25 -15 -6 -12 -16
-21 -23 -21 -7 0 -6 4 3 10 9 6 10 10 3 10 -17 0 -27 -20 -15 -32 6 -6 8 -17
5 -25 -5 -12 -7 -12 -14 -1 -7 10 -12 9 -26 -6 -17 -19 -17 -19 2 -5 18 13 19
13 6 -3 -7 -10 -22 -18 -32 -18 -11 0 -19 -7 -19 -16 0 -13 -3 -14 -15 -4 -8
6 -18 9 -24 6 -5 -3 -11 -2 -13 3 -1 5 -12 3 -23 -6 -20 -15 -20 -15 2 -9 25
8 41 -9 17 -18 -13 -5 -14 -9 -4 -21 8 -10 9 -15 2 -15 -6 0 -15 8 -21 18 -9
16 -10 16 -16 -1 -6 -14 -10 -15 -21 -6 -11 9 -19 8 -34 -6 -11 -10 -17 -22
-14 -26 3 -5 0 -9 -6 -9 -6 0 -9 -4 -5 -9 3 -6 -3 -14 -12 -20 -16 -10 -16
-10 4 -8 11 2 28 9 37 16 13 11 17 11 22 -3 4 -10 13 -15 20 -12 8 3 14 1 14
-4 0 -17 -18 -20 -30 -5 -18 22 -30 18 -30 -7 0 -36 11 -68 21 -62 5 3 6 10 3
16 -4 7 -2 8 5 4 9 -6 9 -11 1 -21 -12 -14 6 -65 22 -65 5 0 7 4 4 9 -4 5 2 7
12 4 10 -2 25 3 33 13 8 11 9 15 2 10 -9 -5 -11 -2 -6 10 4 11 8 13 11 6 5
-17 47 -15 62 3 7 8 17 12 23 8 6 -4 8 0 4 10 -3 9 1 18 9 21 25 10 34 7 34
-9 0 -8 4 -15 9 -15 12 0 22 29 15 43 -3 7 2 3 10 -7 25 -31 30 -11 6 22 -13
18 -28 28 -37 25 -15 -6 -45 26 -37 39 3 4 -2 5 -10 2 -9 -3 -16 -13 -16 -21
0 -8 -5 -11 -10 -8 -6 4 -8 11 -5 16 4 5 3 15 -1 21 -6 9 -10 5 -14 -11 -3
-14 -12 -26 -20 -29 -9 -2 -11 0 -5 5 6 4 10 13 10 18 1 20 27 61 46 73 25 16
24 8 -2 -17 -29 -27 -8 -35 36 -14 33 16 36 16 53 0 14 -14 14 -19 4 -26 -18
-11 -11 -46 8 -46 8 0 16 -9 18 -20 6 -33 20 -40 42 -20 15 14 20 15 20 4 0
-10 3 -10 8 -3 10 16 86 36 108 28 14 -4 15 -3 6 4 -11 7 -10 10 5 15 19 6
178 63 191 69 4 2 6 7 4 12 -2 5 5 6 14 2 12 -4 15 -2 11 9 -4 8 -2 17 3 20 6
4 10 2 10 -3 0 -13 43 -8 48 6 2 6 10 8 19 5 12 -5 14 -1 8 18 -7 23 -7 23 12
6 19 -16 33 -14 33 5 0 5 -6 6 -12 2 -7 -4 -9 -3 -5 1 4 5 20 10 35 12 15 1
21 0 15 -3 -23 -10 -14 -24 9 -15 13 5 42 15 66 22 32 9 41 16 37 28 -5 11 -2
11 14 -3 18 -17 20 -17 29 1 6 10 14 17 19 16 4 -2 23 2 41 8 18 6 39 12 45
13 30 7 47 19 47 35 0 9 9 22 19 28 19 12 31 8 31 -11 0 -6 -4 -5 -9 2 -6 10
-10 10 -21 -3 -10 -13 -9 -15 6 -15 31 0 64 12 64 22 0 6 -7 8 -15 4 -10 -3
-15 1 -15 11 0 9 3 13 7 10 3 -4 12 1 19 11 12 16 13 16 14 -3 0 -16 2 -17 9
-6 5 8 8 19 7 25 -2 6 -1 7 2 3 2 -4 10 0 18 10 13 17 14 17 20 -4 3 -13 10
-20 15 -17 5 3 9 1 9 -4 0 -5 7 -9 15 -9 12 0 12 3 2 15 -10 13 -9 14 12 2 20
-10 23 -10 18 2 -3 8 -1 21 4 29 6 10 9 8 9 -10 0 -21 2 -22 16 -10 17 14 20
15 65 17 14 1 34 10 45 20 10 9 31 18 46 19 15 1 42 8 60 16 18 8 41 17 51 21
9 3 17 13 17 21 0 9 5 13 10 10 6 -4 8 -11 5 -16 -11 -17 4 -9 26 14 12 12 19
17 16 11 -4 -7 0 -14 8 -18 8 -3 15 -2 15 3 0 13 117 54 131 45 7 -4 10 -3 6
3 -4 6 8 16 26 23 17 8 40 20 50 28 14 13 17 13 17 1 1 -9 9 -5 22 11 12 14
19 18 16 9 -4 -10 -1 -16 8 -16 9 0 13 6 10 14 -3 8 -1 11 4 8 5 -3 19 -1 30
5 15 8 20 8 20 -2 0 -8 3 -9 8 -3 9 12 83 51 92 48 4 -1 5 9 3 21 -4 21 -1 24
21 23 28 -2 34 -12 14 -20 -7 -3 -3 -6 10 -6 12 -1 25 5 28 13 3 7 14 11 28 9
13 -3 30 2 39 12 9 9 21 14 26 11 5 -4 17 -3 26 0 13 5 14 9 4 15 -8 5 -2 7
17 7 32 -1 105 22 99 31 -2 3 9 7 23 8 15 0 28 6 30 12 2 5 10 7 18 4 8 -3 14
-1 14 5 0 5 8 9 17 8 10 0 18 6 18 14 0 8 8 15 18 16 12 1 13 1 2 -3 -8 -2
-13 -9 -10 -13 6 -10 133 32 144 47 3 4 11 8 16 8 36 1 75 19 75 33 0 13 2 14
9 3 7 -11 13 -11 32 0 13 7 31 14 40 16 35 6 70 23 76 39 3 9 8 12 12 5 5 -7
20 -6 49 2 24 7 39 16 35 21 -4 4 0 4 10 0 10 -3 17 -1 17 5 0 6 3 10 8 10 4
-1 22 2 41 6 l34 8 -24 18 c-29 23 -17 25 15 4 24 -16 24 -15 39 27 9 24 16
35 16 24 1 -13 6 -16 18 -12 14 6 14 3 -3 -15 l-19 -22 23 14 c12 8 22 19 22
26 0 6 14 14 30 18 17 4 30 11 30 16 0 5 7 9 16 9 14 0 15 -2 3 -17 -13 -16
-12 -16 14 0 15 10 32 15 36 12 5 -3 12 1 14 7 4 10 6 10 6 1 1 -7 9 -13 19
-13 15 0 15 2 2 11 -12 8 -11 9 6 4 26 -7 72 10 91 33 8 9 11 11 7 3 -5 -10
-3 -13 8 -8 9 3 34 11 57 18 24 7 38 16 34 23 -4 6 1 5 10 -3 17 -13 23 -6 18
22 0 4 4 7 9 7 6 0 10 -5 10 -12 0 -6 12 -1 27 13 15 13 21 16 14 7 -19 -25
-6 -22 19 4 11 12 20 17 20 11 0 -6 6 -10 13 -8 37 9 57 18 57 26 0 5 7 9 16
9 10 0 12 -5 7 -12 -4 -7 12 2 35 20 40 32 46 42 43 69 -1 8 5 10 14 7 10 -4
15 0 15 12 0 16 2 17 10 4 14 -22 12 -28 -9 -35 -12 -4 -18 -12 -14 -21 6 -17
14 -18 37 -1 16 12 17 17 6 36 -6 13 -8 21 -3 18 5 -4 10 7 10 23 0 31 9 48
19 37 4 -4 2 -12 -3 -19 -5 -7 -9 -26 -8 -43 3 -45 4 -47 15 -40 6 4 8 11 5
16 -8 12 6 11 25 -1 8 -5 17 -6 20 -2 8 10 79 46 98 49 9 1 28 4 42 6 35 6 62
47 63 98 1 38 -2 44 -26 50 -15 4 -29 3 -33 -2 -8 -14 -24 -11 -24 5 0 21 28
40 43 29 18 -15 57 -23 57 -12 0 5 -5 9 -10 9 -7 0 -7 6 -1 19 6 10 7 21 4 25
-3 3 -3 6 0 6 12 0 37 -59 31 -74 -8 -20 6 -20 32 -1 19 14 19 14 -1 15 -11 0
-16 4 -10 8 6 4 10 18 9 32 -1 14 3 31 9 38 7 9 6 11 -5 7 -10 -4 -17 1 -21
14 -3 12 -2 19 3 16 4 -3 13 2 20 10 13 15 8 19 -22 16 -10 -1 -18 2 -18 8 0
5 8 15 18 20 14 9 13 10 -9 9 -15 -1 -31 -4 -37 -6z"/>
<path d="M6711 5696 c-14 -14 -27 -23 -30 -20 -3 3 1 9 9 14 12 8 11 10 -5 9
-23 0 -66 -17 -47 -18 6 -1 12 -6 12 -12 0 -6 -6 -9 -13 -6 -10 4 -13 -1 -10
-17 5 -26 -21 -54 -33 -35 -4 8 -3 9 5 5 20 -13 25 24 5 42 -17 16 -17 16 -3
-2 12 -17 12 -19 -1 -14 -10 4 -20 -3 -27 -19 -10 -21 -9 -25 10 -33 12 -5 16
-9 9 -9 -8 -1 -23 -11 -33 -23 -19 -22 -19 -22 -10 -2 7 14 7 24 0 31 -6 6 -5
14 5 22 8 7 12 19 9 27 -8 21 -23 17 -23 -6 0 -11 -6 -19 -12 -17 -8 1 -12 -7
-10 -23 4 -35 23 -80 33 -80 5 0 6 -6 3 -13 -7 -19 14 -69 26 -62 6 3 7 -1 4
-10 -3 -8 13 -66 36 -129 34 -90 47 -116 67 -125 23 -11 24 -13 10 -29 -15
-18 -7 -62 11 -62 5 0 7 -11 4 -25 -2 -14 0 -25 6 -25 6 0 13 -13 17 -29 6
-27 9 -30 40 -26 29 4 34 2 32 -15 -1 -22 -26 -27 -45 -8 -9 9 -12 8 -12 -5 0
-9 5 -17 11 -17 6 0 9 -7 5 -15 -3 -10 1 -15 12 -15 12 0 13 -3 4 -8 -9 -7 -9
-18 3 -54 14 -39 20 -45 44 -46 l29 -1 -24 26 c-13 14 -22 28 -19 31 3 3 14
-4 26 -16 11 -13 25 -20 30 -16 5 3 9 2 8 -3 -3 -20 2 -27 11 -13 8 13 10 12
10 -3 0 -26 32 -64 50 -60 13 4 13 3 0 -6 -8 -5 -18 -7 -22 -5 -4 3 -8 0 -8
-5 0 -6 -10 -2 -22 9 -13 12 -30 27 -38 35 -9 8 -21 11 -29 6 -22 -14 8 -51
41 -51 16 0 28 -5 28 -11 0 -8 11 -9 32 -5 31 6 31 6 13 -14 -19 -21 -45 -27
-45 -10 0 5 -7 6 -17 3 -11 -4 -14 -3 -9 5 4 7 0 15 -9 18 -22 9 -30 -2 -15
-21 7 -8 9 -15 5 -15 -4 0 -2 -7 5 -15 6 -8 9 -18 6 -23 -3 -5 4 -26 16 -48
11 -21 20 -40 19 -41 0 -2 -1 -10 -1 -19 0 -11 6 -14 20 -9 11 3 20 2 20 -3 0
-6 -5 -12 -11 -14 -7 -2 -9 -13 -5 -26 4 -12 12 -20 17 -16 6 3 8 -5 5 -20 -6
-34 10 -42 36 -19 15 12 19 13 13 3 -6 -12 -5 -13 6 -2 17 15 53 16 43 1 -5
-9 1 -10 22 -5 36 9 42 15 25 25 -10 6 -9 10 4 15 24 9 27 8 19 -6 -4 -7 -3
-8 4 -4 7 4 12 3 12 -1 0 -17 36 -8 37 9 1 10 -3 18 -8 18 -6 0 -8 -4 -5 -8 3
-5 -1 -9 -9 -9 -24 0 -17 16 10 23 13 3 29 12 36 20 9 11 7 14 -12 15 -20 1
-19 2 8 10 l32 9 -15 42 c-8 23 -18 46 -23 52 -5 6 -14 35 -21 64 -6 28 -16
55 -21 58 -15 9 -10 24 6 18 11 -5 14 -1 9 12 -3 11 -8 26 -10 34 -5 13 -6 13
-14 0 -6 -9 -10 -10 -10 -3 0 6 -18 14 -40 18 -30 5 -40 11 -40 26 0 13 5 17
17 12 12 -5 15 -2 10 9 -3 10 0 19 9 22 12 5 11 12 -6 45 -11 22 -20 47 -20
54 0 8 -6 20 -14 26 -7 6 -17 30 -20 53 -5 28 -10 38 -15 29 -6 -9 -10 -7 -14
10 -4 15 0 27 11 36 9 7 13 13 7 12 -24 -3 -34 2 -29 14 3 8 -7 45 -22 83 -14
38 -27 76 -28 86 -1 9 -7 22 -13 30 -6 7 -14 28 -18 46 -3 18 -11 30 -16 27
-5 -4 -6 1 -3 10 4 9 13 14 21 11 8 -3 11 -1 8 4 -3 6 -13 10 -21 10 -14 0
-19 16 -16 55 2 16 0 17 -8 5 -9 -13 -10 -13 -10 0 0 9 -7 26 -17 39 -15 22
-17 23 -29 6 -7 -9 -17 -14 -23 -10 -16 9 -13 28 3 22 21 -8 39 18 31 44 -6
17 -9 19 -16 8 -7 -9 -8 -5 -3 13 4 21 1 27 -15 33 -11 3 -25 4 -30 1 -5 -4
-11 1 -13 10 -2 13 -8 11 -27 -10z"/>
<path d="M7345 5370 c-88 -32 -167 -63 -175 -68 -9 -5 -30 -13 -48 -17 -18 -3
-30 -10 -27 -15 3 -4 -3 -6 -12 -4 -10 2 -29 -5 -43 -17 -14 -11 -19 -17 -11
-13 11 5 13 3 8 -9 -3 -10 -3 -17 1 -17 5 0 16 -23 27 -51 16 -48 19 -50 32
-34 15 22 18 12 3 -15 -14 -27 5 -76 30 -76 11 0 20 4 20 8 0 4 8 8 19 8 24 0
45 25 37 45 -4 12 3 15 35 15 24 0 38 -4 34 -10 -4 -7 3 -7 20 0 15 6 30 8 35
5 4 -3 10 2 14 10 3 8 13 15 23 15 10 0 71 20 135 43 95 35 115 45 108 57 -5
8 -24 57 -42 107 -23 63 -38 93 -48 92 -8 -1 -87 -27 -175 -59z"/>
<path d="M5830 5393 c-64 -10 -72 -13 -60 -28 7 -9 8 -15 0 -20 -15 -9 -30 3
-23 20 3 9 -1 15 -11 15 -10 0 -13 -6 -10 -15 5 -11 2 -13 -10 -9 -9 3 -13 11
-9 17 4 6 1 7 -8 1 -8 -5 -21 -7 -30 -6 -9 2 -19 -5 -23 -14 -4 -12 -2 -15 9
-10 12 4 13 2 3 -13 -7 -11 -8 -26 -3 -37 5 -11 9 -21 10 -24 8 -31 18 -50 26
-50 5 0 9 -15 9 -33 0 -18 6 -42 14 -52 13 -18 15 -18 41 11 26 26 28 27 22 7
-4 -20 -1 -23 28 -23 21 0 35 6 39 16 3 8 10 12 16 9 6 -4 8 -10 5 -15 -3 -5
7 -12 22 -16 15 -4 49 -17 75 -30 26 -13 54 -24 63 -24 8 0 15 -8 15 -18 0
-13 7 -18 23 -18 17 1 23 -5 25 -28 2 -16 15 -46 28 -67 13 -21 24 -43 24 -49
0 -5 5 -10 10 -10 6 0 10 -9 10 -19 0 -11 4 -22 9 -25 4 -3 14 -27 21 -53 19
-71 28 -78 56 -46 20 23 24 25 30 10 3 -9 10 -17 16 -17 5 0 7 4 3 9 -6 11 13
26 22 17 4 -3 -2 -15 -12 -26 -17 -19 -17 -20 9 -31 14 -7 26 -16 26 -20 0 -5
6 -6 14 -3 8 3 12 12 9 21 -5 13 -2 13 15 4 15 -8 22 -8 25 2 3 8 11 4 22 -11
16 -22 18 -22 35 -7 19 17 40 13 40 -8 1 -7 7 -25 14 -42 13 -29 14 -29 14 -5
0 42 -8 71 -18 65 -6 -3 -11 4 -11 17 -2 35 2 53 12 56 5 2 7 8 4 12 -3 5 -12
7 -20 4 -9 -4 -18 1 -21 11 -6 13 -9 14 -16 3 -8 -10 -9 -10 -5 2 2 10 13 14
30 12 21 -3 26 0 21 12 -3 9 -11 13 -17 9 -6 -4 -8 3 -3 21 4 15 1 36 -6 49
-12 22 -14 28 -17 47 0 6 -12 3 -26 -6 -14 -9 -25 -12 -25 -6 0 6 5 12 10 14
14 4 22 48 9 48 -5 0 -9 6 -8 13 4 33 0 38 -23 25 -38 -22 -48 -34 -36 -46 6
-6 6 -12 0 -16 -6 -3 -13 3 -17 14 -4 11 -12 20 -18 19 -15 -3 -67 22 -67 31
0 4 7 13 15 20 8 7 15 19 15 27 0 12 3 13 13 4 8 -6 16 -8 20 -5 3 3 11 -4 17
-16 8 -16 15 -18 24 -11 9 7 16 7 23 0 8 -8 11 0 10 26 -1 21 -3 33 -5 27 -4
-13 -62 50 -62 67 0 6 -5 11 -10 11 -14 0 7 -40 29 -57 9 -7 14 -13 11 -13
-35 -8 -39 -6 -46 22 -5 23 -8 27 -16 17 -7 -11 -8 -9 -7 6 7 64 -77 139 -216
193 -74 28 -126 37 -119 18 6 -16 -11 -30 -26 -21 -8 5 -8 11 0 20 8 10 4 14
-15 17 -14 3 -25 1 -25 -5 0 -7 -4 -7 -12 1 -7 7 -14 11 -17 11 -4 -1 -17 -3
-31 -6z"/>
<path d="M5555 5326 c-11 -7 -33 -16 -49 -20 -23 -6 -27 -9 -15 -17 11 -7 10
-10 -8 -15 -13 -4 -23 -10 -23 -14 0 -4 -15 -11 -34 -14 -44 -8 -170 -139
-161 -166 3 -10 -1 -25 -10 -33 -8 -9 -15 -21 -15 -27 0 -6 -4 -8 -10 -5 -12
7 -40 -59 -40 -96 0 -15 -4 -30 -9 -33 -5 -4 -7 -35 -4 -71 3 -44 1 -65 -7
-65 -7 0 -10 -14 -7 -37 2 -29 7 -37 20 -35 22 4 22 -7 1 -23 -16 -11 -16 -17
1 -86 10 -40 24 -80 32 -87 13 -14 17 -26 14 -50 -4 -28 129 -242 150 -242 3
0 4 12 1 26 -4 22 -2 25 19 22 18 -2 23 -8 21 -23 -2 -11 -8 -21 -13 -23 -15
-6 -10 -28 11 -47 19 -17 21 -17 38 -2 25 23 44 21 60 -3 10 -17 10 -21 -3
-26 -8 -4 -22 -1 -29 5 -9 7 -17 8 -20 3 -8 -14 21 -35 38 -29 10 4 13 1 10
-7 -8 -22 27 -29 43 -9 8 10 12 13 9 7 -10 -21 30 -60 61 -58 15 0 38 -3 50
-7 13 -5 25 -4 28 1 4 6 -4 11 -17 11 -17 1 -18 3 -6 6 16 4 16 7 3 33 -18 35
-2 51 17 18 17 -31 20 -69 6 -88 -10 -12 -10 -13 2 -2 8 6 26 12 40 12 14 0
31 5 38 12 9 9 12 9 12 0 0 -6 -12 -15 -26 -18 -16 -4 -22 -10 -16 -16 6 -6
24 -6 48 1 48 13 57 14 49 2 -7 -13 56 -6 83 8 14 7 23 8 27 1 4 -7 12 -7 25
0 13 7 20 6 23 -3 7 -17 38 24 32 41 -3 8 -5 23 -5 33 0 11 -5 17 -10 14 -6
-4 -8 -10 -5 -15 3 -5 -9 -3 -27 5 -31 13 -33 17 -30 55 3 31 -1 45 -15 56
-17 14 -17 14 3 5 23 -11 39 -71 21 -82 -5 -4 0 -12 12 -18 17 -10 21 -9 21 4
0 10 5 13 12 9 7 -4 8 -3 4 5 -4 6 -11 9 -16 6 -14 -8 -18 18 -6 38 9 14 7 20
-7 28 -12 7 -16 17 -12 30 4 10 2 19 -4 19 -6 0 -8 7 -5 15 5 11 -1 15 -21 15
-24 0 -27 -3 -23 -25 3 -15 -1 -30 -9 -37 -31 -25 -80 -16 -63 12 7 10 12 11
18 4 4 -6 17 -7 32 -3 21 6 22 7 5 9 -11 1 -14 4 -7 7 6 2 12 9 12 15 0 7 -17
9 -45 6 -25 -3 -45 -2 -45 2 0 5 -13 7 -30 6 -16 -1 -31 3 -34 10 -2 6 -25 20
-50 30 -25 11 -46 25 -46 32 0 7 -4 11 -9 8 -5 -3 -20 4 -35 15 -14 11 -30 18
-36 14 -5 -3 -20 1 -33 10 -23 15 -25 14 -30 -5 -4 -16 -2 -20 9 -16 20 8 74
-4 74 -16 0 -6 -18 -8 -42 -6 -25 3 -54 -1 -70 -9 -30 -15 -34 -23 -17 -40 7
-7 7 -13 0 -17 -5 -4 -17 7 -26 25 -9 17 -12 28 -6 25 6 -4 11 -3 11 3 0 5 9
13 20 16 17 5 18 10 9 27 -7 13 -7 18 -1 14 17 -11 21 8 6 29 -8 10 -14 14
-14 8 0 -7 -9 -11 -20 -10 -23 1 -28 17 -5 17 8 0 14 5 12 12 -1 7 8 13 21 14
16 1 24 -6 28 -23 5 -18 9 -21 20 -13 9 8 18 8 33 0 17 -9 21 -8 21 4 0 10 -6
13 -15 10 -8 -4 -15 -1 -15 5 0 6 5 11 10 11 7 0 7 7 0 20 -6 11 -15 18 -20
15 -12 -8 -50 17 -50 32 0 7 7 13 15 13 8 0 15 -7 15 -15 0 -8 4 -15 10 -15 6
0 5 9 -2 25 -6 13 -14 24 -17 23 -18 -2 -22 4 -11 17 10 12 10 15 -4 15 -9 0
-16 5 -16 10 0 6 4 10 9 10 13 0 7 33 -7 38 -7 2 -10 8 -6 13 3 5 0 9 -6 9 -6
0 -8 12 -5 30 3 18 1 30 -5 30 -6 0 -8 4 -5 10 3 5 7 42 9 82 4 75 43 188 65
188 20 0 11 19 -11 22 -12 2 -23 9 -26 16 -3 10 5 13 32 11 19 -2 41 2 47 8
10 10 16 8 26 -5 13 -16 14 -15 10 5 -3 16 2 27 19 38 22 14 36 64 15 50 -6
-3 -13 11 -16 32 -9 57 -23 85 -38 77 -9 -5 -9 -4 0 6 9 9 7 19 -7 43 -11 17
-17 34 -14 39 7 11 1 10 -21 -6z"/>
<path d="M4418 4882 c-10 -2 -18 -8 -18 -13 0 -5 -10 -9 -22 -10 -37 0 -143
-46 -140 -59 2 -8 -3 -10 -14 -6 -10 4 -20 2 -24 -4 -4 -6 -20 -13 -36 -16
-16 -3 -31 -9 -32 -15 -2 -5 -8 -7 -13 -3 -13 7 -11 -1 6 -43 8 -19 15 -44 15
-54 0 -11 5 -19 10 -19 6 0 10 -7 10 -15 0 -19 33 -84 43 -85 4 0 8 12 8 28 2
23 2 24 6 5 2 -13 11 -23 19 -23 21 0 57 20 68 38 6 11 10 12 16 2 5 -8 13 -9
21 -4 8 5 20 9 26 10 14 2 153 55 153 57 0 1 -19 54 -43 117 -34 93 -45 115
-59 112z"/>
<path d="M3974 4705 c-12 -8 -24 -11 -28 -8 -3 3 -6 -2 -7 -13 0 -10 -3 -13
-6 -6 -2 6 -9 12 -14 12 -6 0 -7 -5 -4 -10 4 -7 -2 -9 -17 -5 -23 6 -118 -27
-118 -40 0 -4 6 -3 13 1 9 5 9 4 0 -6 -15 -16 -7 -39 24 -68 13 -13 21 -27 18
-33 -4 -5 -1 -9 5 -9 6 0 13 7 16 15 5 12 9 13 21 4 7 -7 12 -18 9 -25 -3 -7
-1 -16 4 -19 6 -4 10 2 10 11 0 13 3 15 11 7 6 -6 8 -16 5 -22 -10 -16 -42
-14 -59 4 -8 8 -17 12 -20 8 -3 -3 6 -16 20 -29 23 -22 26 -22 49 -7 13 8 24
20 24 27 0 6 5 4 10 -4 7 -10 10 -11 10 -2 0 7 -7 15 -15 18 -19 8 -19 24 0
24 8 0 18 -14 23 -32 6 -26 14 -33 33 -34 41 -1 49 -4 49 -16 0 -6 -3 -9 -6
-5 -3 3 -16 2 -28 -3 -17 -6 -26 -4 -37 11 -14 20 -39 26 -39 9 0 -5 4 -10 9
-10 18 0 6 -53 -15 -67 -19 -12 -22 -12 -27 7 -3 13 0 20 9 20 8 0 14 -5 14
-12 0 -6 3 -8 6 -5 4 4 1 14 -6 22 -7 9 -9 15 -4 13 5 -2 9 2 9 7 0 6 -4 9 -8
7 -5 -1 -5 3 -1 9 4 7 2 10 -7 7 -8 -3 -13 -13 -13 -22 2 -13 -1 -14 -12 -5
-8 7 -17 9 -20 6 -8 -8 5 -47 16 -47 4 0 6 -9 3 -20 -6 -23 -6 -23 36 -9 17 6
31 17 31 25 0 8 5 14 11 14 8 0 9 4 0 13 -6 8 -8 17 -4 21 4 3 13 -8 20 -25
15 -37 17 -52 3 -44 -5 3 -25 -1 -45 -9 -31 -13 -36 -20 -33 -42 2 -18 10 -28
22 -30 28 -4 36 -24 22 -52 -9 -18 -10 -32 -2 -58 9 -28 15 -33 34 -29 28 5
52 23 52 39 0 6 -6 4 -13 -4 -7 -9 -23 -17 -37 -17 -19 -2 -21 0 -10 7 13 8
13 13 2 30 -16 25 -1 50 29 50 16 0 17 4 9 25 -6 16 -6 25 0 25 6 0 18 8 29
19 18 18 18 17 19 -12 1 -22 -2 -27 -11 -18 -16 16 -26 14 -22 -6 1 -11 9 -17
20 -15 10 2 21 -2 26 -9 11 -19 23 -3 14 18 -14 33 -13 42 3 37 14 -5 14 -4 0
6 -26 16 -22 28 7 26 15 0 25 -7 25 -16 0 -8 3 -26 6 -40 3 -14 2 -20 -3 -14
-4 6 -17 14 -28 17 -17 6 -18 5 -5 -5 9 -7 14 -22 12 -33 -2 -15 -1 -16 6 -7
7 11 12 11 25 -2 8 -9 18 -16 21 -16 8 0 2 38 -7 46 -10 11 -8 24 4 24 5 0 7
-5 3 -11 -4 -7 -1 -10 7 -7 8 3 22 1 33 -4 12 -7 16 -7 12 0 -3 6 0 12 6 15
10 3 10 7 -1 20 -7 10 -18 17 -24 17 -6 0 -3 -6 7 -13 16 -12 15 -13 -12 -11
-41 3 -48 8 -55 44 -5 22 -12 30 -27 30 -17 0 -19 4 -14 28 8 31 32 52 51 45
15 -6 18 23 3 32 -5 3 -10 1 -10 -5 0 -6 -4 -9 -9 -5 -5 3 -12 1 -16 -5 -4 -6
-11 -8 -16 -5 -14 9 -11 35 4 35 7 0 13 10 14 23 2 22 2 22 -14 2 -15 -20 -15
-20 -10 3 3 12 1 22 -4 22 -5 0 -9 5 -9 10 0 11 40 -8 52 -25 4 -5 8 0 8 12 0
17 -4 21 -17 16 -15 -5 -14 -3 2 10 19 15 18 16 -18 15 -40 -1 -53 5 -42 21 7
12 26 15 23 4 -3 -9 5 -13 23 -13 8 0 8 4 1 13 -6 6 -11 15 -11 19 -6 39 -15
69 -22 74 -5 3 -9 1 -9 -5 0 -6 -7 -8 -15 -5 -8 4 -12 10 -9 15 8 14 -20 11
-35 -3 -11 -10 -13 -10 -7 0 9 16 5 15 -20 -3z"/>
<path d="M6221 4691 c-9 -6 -11 -16 -5 -32 4 -13 8 -35 9 -49 1 -14 5 -31 9
-38 4 -7 3 -12 -1 -12 -5 0 -9 -9 -10 -20 -1 -11 2 -18 8 -15 5 4 9 -1 9 -9 0
-9 6 -16 14 -16 7 0 19 -7 26 -15 10 -12 8 -16 -10 -23 -21 -8 -22 -9 -5 -16
10 -4 21 -2 25 5 5 7 9 7 11 1 2 -5 12 -6 23 -3 18 7 18 8 0 26 -18 18 -18 18
8 13 28 -5 47 17 30 34 -10 10 -42 0 -42 -14 0 -12 -42 1 -52 15 -8 13 -1 27
13 27 6 0 7 -4 4 -10 -3 -5 -2 -10 3 -10 5 0 12 8 15 19 3 14 11 17 31 14 25
-5 26 -4 20 33 -6 40 -57 100 -75 89 -5 -3 -17 -2 -27 4 -10 5 -24 6 -31 2z"/>
<path d="M6458 4655 c-3 -3 -20 -7 -38 -10 -18 -2 -33 -5 -34 -7 -1 -2 -7 -15
-13 -30 -11 -24 -9 -28 13 -43 30 -19 31 -19 38 18 3 19 1 27 -10 27 -8 0 -13
4 -10 9 7 10 55 11 61 1 3 -4 -4 -19 -15 -32 -11 -14 -17 -28 -13 -31 3 -3 2
-14 -1 -24 -6 -15 -8 -15 -16 -3 -8 13 -11 13 -26 -2 -17 -17 -24 -94 -10
-117 4 -6 3 -18 -4 -26 -7 -8 -7 -15 -1 -19 5 -3 11 -1 13 5 3 8 11 5 23 -7
18 -18 18 -18 11 9 -4 16 -2 27 4 27 10 0 14 -26 11 -62 -1 -9 3 -20 10 -24 8
-4 9 -3 5 4 -4 6 0 25 9 41 17 34 20 65 5 56 -16 -10 -12 15 5 31 8 9 15 26
15 39 0 18 5 23 20 20 13 -2 20 2 20 11 0 9 -5 12 -12 8 -7 -5 -9 -2 -6 7 5
12 -1 14 -24 11 -27 -4 -29 -2 -20 14 5 11 7 26 5 34 -3 10 1 8 11 -4 16 -20
16 -20 17 0 0 18 1 18 9 -1 13 -31 10 5 -3 40 -11 28 -36 43 -49 30z"/>
<path d="M3681 4604 c-24 -8 -52 -21 -61 -29 -12 -10 -20 -13 -24 -6 -8 12
-34 4 -58 -17 -10 -8 -24 -12 -31 -9 -8 3 -31 -6 -51 -19 -20 -14 -41 -22 -46
-19 -6 3 -10 2 -10 -3 0 -8 52 -155 75 -213 5 -14 28 -8 160 40 84 31 151 59
149 63 -3 4 3 5 12 1 13 -5 16 -2 12 8 -3 8 -20 57 -38 109 -17 52 -35 98 -39
101 -3 3 -26 0 -50 -7z"/>
<path d="M6206 4472 c-3 -2 -2 -10 1 -18 3 -8 0 -14 -6 -14 -6 0 -11 -9 -11
-19 0 -14 5 -18 20 -14 11 3 20 0 20 -6 0 -12 0 -12 -45 -16 -43 -4 -43 -3
-15 -25 14 -11 19 -20 13 -20 -7 0 -13 -7 -13 -15 0 -8 -5 -15 -11 -15 -6 0
-8 10 -5 23 3 12 3 16 0 10 -3 -7 -13 -13 -22 -13 -14 0 -15 -2 -2 -10 8 -5
11 -12 7 -16 -3 -4 -13 -1 -21 6 -13 10 -21 8 -45 -12 -17 -12 -30 -32 -30
-44 -1 -29 19 -84 31 -84 5 0 7 -4 3 -9 -8 -13 25 -43 41 -37 7 3 16 1 19 -4
4 -6 -3 -10 -15 -10 -12 0 -18 -5 -15 -10 4 -6 12 -7 18 -3 8 4 8 2 -1 -9 -11
-13 -8 -16 15 -21 21 -4 38 2 69 26 23 18 40 35 37 40 -4 6 8 12 66 32 11 4
11 8 1 20 -10 13 -8 15 14 15 15 0 26 6 26 14 0 7 10 16 22 19 18 5 19 8 9 21
-15 17 -8 46 10 46 6 0 9 -6 6 -14 -7 -18 23 -30 37 -16 8 8 6 9 -6 5 -13 -5
-18 -2 -18 9 0 9 5 16 11 16 6 0 3 8 -7 18 -22 22 -64 26 -64 6 0 -8 -4 -14
-9 -14 -14 0 -10 49 5 61 8 6 14 15 14 20 0 14 -30 10 -46 -6 -21 -21 -34 -19
-34 5 0 14 6 20 17 18 10 -2 19 4 21 14 2 12 -2 15 -17 11 -12 -3 -21 -9 -21
-14 0 -5 -7 -9 -15 -9 -8 0 -15 5 -15 11 0 5 -4 7 -10 4 -6 -4 -8 6 -6 23 3
26 -13 39 -28 24z"/>
<path d="M3151 4419 c-13 -5 -31 -18 -40 -28 -12 -13 -25 -17 -48 -14 -21 4
-33 1 -33 -6 0 -7 -4 -9 -10 -6 -5 3 -10 1 -10 -5 0 -6 -4 -8 -10 -5 -5 3 -20
0 -32 -7 -13 -6 -32 -13 -42 -15 -11 -2 -21 -5 -23 -7 -2 -2 24 -78 57 -169
33 -91 60 -172 60 -180 0 -19 24 -29 38 -15 6 6 12 6 16 -1 10 -16 -3 -33 -20
-27 -17 6 -17 7 -3 -33 6 -17 17 -31 25 -31 10 0 14 -10 12 -33 -1 -18 2 -39
7 -47 10 -16 12 -21 14 -46 0 -9 6 -12 13 -8 8 5 9 2 5 -10 -6 -16 -3 -17 20
-11 l28 6 -22 -20 c-22 -21 -22 -29 2 -78 1 -2 16 2 35 7 28 8 35 7 47 -10 8
-11 22 -20 31 -20 10 0 12 -3 6 -9 -13 -13 -64 -1 -64 15 0 22 -37 16 -43 -6
-4 -15 0 -20 15 -20 16 0 18 -3 9 -13 -8 -10 -6 -31 8 -80 11 -36 22 -70 25
-75 2 -4 0 -28 -5 -51 -9 -39 -7 -47 12 -67 l22 -24 -36 2 c-25 1 -44 -6 -66
-25 -18 -14 -27 -29 -21 -32 6 -4 8 -10 5 -15 -4 -6 -14 -4 -25 2 -27 17 -34
5 -16 -31 9 -16 16 -36 16 -44 0 -8 7 -20 15 -27 8 -7 12 -17 9 -22 -4 -6 2
-8 12 -6 11 2 18 11 16 21 -2 9 2 17 8 17 5 0 9 -6 7 -12 -3 -19 39 -21 57 -3
9 9 16 14 16 10 0 -3 9 -1 20 5 16 9 18 15 10 30 -9 17 -8 19 7 13 10 -3 24
-10 31 -16 8 -6 17 -5 27 3 8 6 19 9 25 5 5 -3 10 -2 10 4 0 6 7 8 15 5 8 -4
15 -1 15 6 0 6 3 9 8 7 18 -11 51 16 76 62 24 47 53 207 35 195 -4 -2 -10 16
-13 41 -4 25 -12 45 -17 45 -6 0 -8 8 -4 19 3 10 -4 43 -16 72 -11 30 -20 55
-20 57 4 11 -1 22 -8 17 -16 -9 -25 16 -10 27 11 8 10 9 -3 4 -19 -6 -25 9 -9
19 13 7 -18 95 -35 102 -8 3 -12 9 -9 13 3 5 1 11 -4 14 -5 3 -7 14 -5 24 3 9
-3 35 -12 57 -10 22 -19 45 -20 50 -1 6 -25 73 -53 150 -28 76 -51 141 -51
143 0 2 -5 0 -12 -4 -7 -4 -8 -3 -4 5 7 11 -29 137 -42 145 -4 2 -18 0 -31 -5z"/>
<path d="M4224 4273 c8 -14 -2 -17 -44 -13 -20 1 -23 -1 -12 -11 15 -16 16
-33 0 -23 -7 5 -8 3 -3 -6 6 -10 4 -12 -11 -6 -10 4 -15 4 -12 0 4 -4 3 -15
-2 -25 -8 -13 -6 -19 8 -22 13 -4 11 -5 -5 -6 -13 0 -23 3 -23 9 0 5 -7 7 -16
3 -18 -7 -8 -19 21 -25 16 -3 15 -5 -7 -10 -15 -3 -25 -2 -23 3 3 4 1 10 -4
13 -17 11 -23 -15 -8 -32 13 -15 13 -19 1 -30 -12 -11 -13 -9 -11 9 1 12 -4
24 -12 27 -8 3 -11 0 -7 -7 5 -7 1 -9 -8 -5 -9 3 -16 14 -16 23 0 9 -3 12 -8
6 -4 -5 -18 -11 -31 -13 -29 -3 -41 -13 -23 -19 6 -3 12 -10 12 -17 0 -8 10
-12 25 -11 14 2 25 -1 25 -6 0 -5 -9 -9 -20 -9 -11 0 -20 -5 -20 -11 0 -6 9
-13 20 -16 11 -3 20 -10 20 -15 0 -5 -4 -7 -9 -4 -15 10 -21 -22 -6 -34 8 -6
11 -18 8 -26 -3 -8 -1 -14 5 -14 5 0 12 -17 16 -38 3 -22 14 -50 25 -63 10
-13 19 -27 20 -31 0 -5 2 -11 2 -15 6 -39 19 -64 30 -57 5 3 6 10 3 16 -4 7
-2 8 4 4 9 -5 8 -13 -4 -30 -13 -21 -13 -25 0 -39 9 -8 12 -17 7 -19 -5 -2 -2
-20 6 -40 13 -33 17 -36 35 -27 11 6 17 17 14 25 -3 8 0 14 5 14 7 0 9 -11 7
-25 -3 -14 -1 -28 5 -32 5 -3 7 -1 4 4 -8 13 19 37 32 29 5 -3 11 -3 14 1 4 9
-3 -16 -10 -35 -3 -8 0 -10 10 -7 9 4 16 -1 20 -14 6 -26 2 -26 -24 -3 -12 12
-17 25 -13 35 3 10 1 17 -5 17 -6 0 -11 -6 -11 -14 0 -21 -21 -31 -31 -15 -6
10 -11 11 -19 3 -12 -12 46 -188 60 -179 4 3 6 -4 3 -15 -4 -16 -2 -19 11 -14
10 4 15 13 11 22 -4 12 -3 12 9 3 15 -13 49 -4 40 10 -3 5 0 9 5 9 6 0 11 -5
11 -10 0 -7 7 -7 21 1 15 8 18 13 10 19 -10 5 -9 9 2 13 8 3 20 0 26 -6 8 -8
16 -6 30 7 11 10 25 15 30 11 15 -9 14 8 -1 25 -11 12 -10 12 3 2 9 -6 20 -8
24 -4 5 4 4 1 0 -7 -6 -11 -4 -13 9 -8 10 4 22 7 27 7 5 0 9 5 9 11 0 6 -8 8
-17 5 -17 -6 -17 -5 -1 7 10 8 16 16 13 19 -2 2 -18 42 -34 88 -17 46 -35 86
-41 90 -6 4 -10 11 -8 16 6 18 -36 134 -48 134 -7 0 -16 4 -19 10 -3 6 1 7 9
4 13 -5 11 8 -10 62 -14 38 -32 89 -41 114 -21 56 -22 58 -34 40 -8 -11 -12
-12 -16 -2 -7 18 -23 15 -23 -5 0 -15 -2 -16 -10 -3 -6 10 -10 11 -10 3 0 -7
-5 -13 -11 -13 -6 0 -8 8 -4 19 8 25 -5 53 -21 47 -7 -3 -15 0 -18 7 -3 8 -5
7 -5 -2 -1 -8 7 -20 17 -27 15 -12 15 -13 1 -14 -9 0 -22 7 -29 15 -19 23 4
47 35 35 14 -5 26 -5 33 2 8 8 14 4 22 -13 6 -14 20 -25 31 -26 23 -2 24 10 3
31 -16 16 -31 20 -73 16 -14 -1 -21 2 -17 9 4 6 1 11 -6 11 -10 0 -9 3 2 10 8
5 11 12 7 16 -3 4 -15 1 -24 -7 -10 -7 -7 -1 6 14 14 15 30 27 38 27 7 0 13 5
13 11 0 5 4 8 9 5 11 -7 8 21 -4 31 -4 4 -5 2 -1 -4z"/>
<path d="M7770 4233 c-105 -8 -323 -73 -242 -73 16 0 23 -8 27 -27 4 -16 10
-36 16 -45 9 -18 -5 -27 -15 -9 -3 5 -16 11 -30 13 -21 4 -23 2 -19 -29 3 -18
0 -33 -6 -33 -10 0 -23 31 -20 46 1 5 -1 17 -6 27 -4 10 -2 23 5 32 19 23 8
26 -25 9 -17 -9 -32 -16 -35 -16 -3 0 -15 -4 -28 -9 -13 -5 -27 -9 -31 -9 -4
0 -6 -13 -5 -30 1 -16 -2 -30 -6 -30 -5 0 5 -40 22 -90 18 -54 36 -90 44 -90
27 0 99 34 116 54 10 12 18 15 18 9 0 -7 7 -13 15 -13 7 0 18 6 22 13 9 14 31
17 121 19 53 1 66 -2 88 -23 65 -61 86 -178 42 -235 -13 -16 -21 -31 -19 -34
2 -3 -6 -9 -18 -15 -23 -11 -29 -30 -6 -22 8 4 17 3 19 -2 3 -4 -18 -19 -47
-32 -29 -13 -57 -31 -64 -39 -6 -8 -15 -11 -20 -7 -4 5 0 13 10 18 9 6 15 14
12 20 -4 5 4 13 17 18 13 6 18 10 11 10 -6 1 -35 -10 -65 -24 -29 -14 -47 -25
-40 -25 20 0 14 -16 -13 -30 -22 -12 -27 -11 -38 3 -9 13 -16 14 -27 6 -13 -9
-12 -10 3 -5 22 7 23 -10 1 -18 -15 -6 -15 -8 -1 -24 11 -12 13 -22 7 -32 -5
-8 -10 -22 -10 -30 0 -8 9 3 20 25 24 47 24 45 3 45 -31 0 -4 13 34 16 l38 3
-22 -19 c-28 -23 -29 -45 -3 -63 13 -9 18 -20 14 -31 -6 -15 -8 -15 -21 1 -10
13 -16 15 -19 5 -3 -6 -11 -9 -16 -6 -6 4 -9 3 -7 -2 11 -22 28 -60 33 -77 5
-14 11 -17 28 -11 13 5 33 8 45 9 11 0 19 3 17 6 -6 10 123 49 162 49 74 0
114 -38 194 -184 29 -52 73 -118 98 -146 45 -52 55 -55 107 -36 6 2 20 7 33
11 12 4 22 12 22 17 0 5 4 7 9 4 5 -4 11 0 14 6 4 10 7 11 18 1 19 -18 34 -16
19 2 -7 9 -10 18 -6 22 3 3 6 1 6 -5 0 -7 6 -12 12 -12 20 0 98 34 98 43 0 5
-4 6 -10 2 -11 -7 -44 41 -36 54 3 5 -1 11 -9 15 -8 3 -23 22 -32 41 -13 27
-22 35 -36 31 -15 -4 -18 0 -14 15 3 13 0 22 -10 26 -16 6 -35 -15 -29 -33 2
-6 -5 -11 -17 -10 -21 1 -38 26 -17 26 6 0 8 -4 5 -10 -3 -5 -2 -10 4 -10 27
0 11 77 -40 187 -10 24 -19 45 -19 48 0 3 -10 20 -22 36 -30 40 -92 76 -147
85 l-43 7 31 24 c73 57 111 173 91 276 -22 115 -102 254 -139 242 -10 -3 -20
3 -27 18 -5 12 -15 21 -20 20 -6 -1 -40 8 -75 20 -35 12 -80 21 -99 20z"/>
<path d="M2395 4143 c-22 -8 -65 -24 -95 -35 -76 -27 -130 -50 -130 -55 0 -2
7 -20 17 -41 9 -20 17 -39 18 -42 0 -3 11 -36 24 -73 17 -51 27 -67 39 -65 10
2 16 11 14 22 -2 11 1 15 8 11 6 -4 9 -13 6 -21 -3 -7 3 -18 12 -23 16 -9 16
-11 -2 -28 -11 -10 -15 -11 -9 -3 14 19 -8 45 -24 29 -7 -7 -4 -24 8 -49 11
-22 19 -43 18 -47 -1 -4 0 -11 1 -15 1 -5 3 -11 4 -15 7 -31 19 -53 28 -53 5
0 8 -7 4 -15 -3 -8 -1 -15 4 -15 6 0 10 -8 10 -17 0 -36 38 -118 54 -117 9 1
13 -3 10 -8 -4 -6 0 -15 7 -20 10 -7 8 -8 -8 -5 -13 3 -23 3 -23 1 0 -2 10
-13 23 -25 12 -12 16 -19 10 -15 -14 8 -17 -3 -7 -28 3 -9 12 -16 19 -16 7 0
15 -9 18 -20 3 -11 1 -20 -3 -20 -4 0 -6 -9 -3 -20 4 -16 9 -18 25 -9 14 8 17
14 9 23 -6 7 -12 25 -13 39 -1 15 -8 29 -15 31 -18 7 -16 24 5 35 14 8 18 5
19 -11 2 -26 7 -30 27 -22 13 5 14 9 5 20 -7 8 -9 17 -5 21 3 3 6 2 6 -4 0 -6
9 -13 20 -16 11 -3 20 -10 20 -17 0 -6 -4 -8 -10 -5 -15 9 -60 -25 -60 -47 0
-15 5 -18 20 -13 32 10 25 -20 -11 -45 -28 -21 -29 -23 -14 -40 10 -11 14 -23
11 -29 -7 -11 20 -71 32 -71 5 0 14 6 21 13 11 10 13 9 7 -1 -10 -17 17 -42
35 -32 11 7 9 13 -9 33 -26 27 -28 37 -7 37 8 0 15 5 15 10 0 6 5 10 11 10 5
0 8 -4 5 -9 -3 -5 1 -12 9 -15 11 -4 14 -13 9 -33 -8 -33 -23 -55 -34 -48 -9
6 -20 -19 -20 -44 0 -18 71 -92 108 -110 12 -7 27 -9 33 -5 6 3 16 -2 23 -11
10 -14 18 -15 51 -6 21 6 41 8 44 5 3 -2 -4 -7 -16 -10 -12 -3 -24 -12 -26
-18 -7 -17 72 2 130 30 26 14 46 18 55 13 11 -7 10 -11 -2 -19 -14 -9 -7 -12
16 -9 4 0 11 -5 16 -13 7 -9 8 -7 3 7 -20 55 -19 56 9 45 34 -12 49 -13 41 -1
-3 5 3 17 12 27 16 16 16 16 -4 10 -18 -6 -22 -3 -20 13 0 11 5 17 9 15 4 -3
8 0 8 5 0 6 6 11 14 11 8 0 17 4 20 9 3 5 -9 7 -28 4 -19 -2 -37 0 -41 6 -3 7
0 8 9 5 9 -3 23 2 33 12 17 16 17 17 1 11 -10 -3 -20 -2 -23 2 -3 5 3 12 12
15 12 5 13 10 5 18 -7 7 -7 19 -2 34 9 23 8 23 -52 19 -37 -2 -64 -8 -69 -17
-7 -10 -9 -10 -9 3 0 10 -12 19 -31 23 -35 7 -99 65 -99 90 0 9 -4 16 -9 16
-13 0 -34 58 -27 75 3 9 2 14 -3 11 -4 -3 -13 6 -20 20 -6 14 -16 22 -21 19
-6 -3 -10 -2 -10 4 0 5 5 11 10 13 7 2 6 13 -2 31 -12 27 -16 28 -62 24 -31
-3 -52 -10 -58 -21 -11 -20 -28 -21 -28 -2 0 8 9 18 20 21 11 4 18 11 15 16
-4 5 16 9 44 9 44 0 50 2 44 18 -4 9 -14 22 -22 29 -12 9 -12 12 -3 13 7 0 11
4 7 10 -3 5 -13 6 -23 3 -15 -6 -15 -5 -3 10 11 14 8 31 -24 122 -29 81 -41
105 -53 100 -11 -4 -12 -2 -5 7 10 14 10 20 -2 55 -9 27 -25 21 -26 -10 -1
-19 -2 -19 -6 -3 -4 15 -7 16 -14 5 -7 -11 -9 -10 -9 4 0 10 7 20 15 23 20 8
19 42 -2 90 -9 22 -18 46 -20 55 -6 35 -39 112 -48 115 -6 2 -28 -4 -50 -13z
m-14 -187 c5 3 12 -2 15 -10 3 -9 13 -16 21 -16 11 0 14 -7 11 -25 -4 -20 -2
-23 8 -15 9 8 15 6 23 -7 6 -10 11 -13 11 -5 0 7 -7 24 -16 37 -9 14 -12 25
-6 25 6 0 19 3 29 7 16 6 16 5 5 -9 -10 -13 -11 -22 -3 -37 14 -26 4 -51 -17
-45 -15 5 -15 4 1 -9 20 -17 22 -29 5 -26 -27 3 -39 -1 -32 -13 4 -7 3 -8 -4
-4 -7 4 -12 1 -12 -9 0 -9 5 -13 10 -10 6 3 10 1 10 -4 0 -6 -4 -12 -10 -12
-5 -1 -16 -2 -22 -3 -7 -1 -12 -8 -10 -16 2 -10 0 -11 -11 -2 -8 7 -16 9 -20
6 -3 -3 -10 4 -16 15 -10 18 -9 20 6 14 10 -4 21 -11 25 -17 3 -5 14 8 23 30
10 21 21 46 25 55 7 13 3 15 -18 11 -15 -3 -22 -7 -16 -9 7 -2 10 -12 7 -23
-3 -11 -11 -16 -19 -13 -10 4 -12 0 -8 -11 3 -9 1 -16 -5 -16 -6 0 -11 4 -11
10 0 5 -8 6 -17 3 -15 -6 -16 -4 -6 9 15 17 7 29 -13 21 -8 -3 -14 0 -14 7 0
6 5 8 10 5 15 -9 12 8 -6 33 -18 25 -15 32 13 37 10 2 18 4 18 5 0 1 8 3 18 5
11 2 16 1 13 -2 -3 -4 -1 -12 5 -19 8 -9 5 -18 -10 -33 -25 -25 -27 -41 -5
-41 8 0 12 5 9 10 -9 14 14 42 28 33 7 -4 8 0 3 13 -8 18 -14 41 -15 56 -1 4
-8 5 -16 2 -10 -4 -15 0 -14 12 0 11 3 14 6 6 2 -6 9 -10 14 -6z"/>
<path d="M7260 4029 c0 -11 -5 -29 -10 -39 -6 -11 -6 -21 -1 -24 10 -7 3 -46
-9 -46 -4 0 -11 15 -14 33 -7 30 -8 31 -21 13 -16 -22 -31 -16 -22 9 4 8 16
15 27 15 23 0 26 15 6 35 -10 10 -16 11 -25 2 -15 -15 -54 -20 -45 -5 4 7 3 8
-4 4 -9 -5 -9 -13 -1 -28 9 -16 7 -24 -6 -37 -10 -9 -15 -11 -11 -5 3 7 -1 15
-10 18 -13 5 -14 9 -5 20 7 9 8 17 2 20 -16 10 -40 -5 -53 -35 -7 -16 -19 -31
-26 -34 -9 -3 -10 0 -3 14 12 22 5 31 -22 31 -16 0 -19 -5 -13 -31 3 -17 12
-45 20 -62 8 -18 20 -50 27 -72 14 -45 29 -63 46 -58 10 4 9 12 -3 35 -8 16
-17 56 -20 89 -4 57 -3 59 16 47 24 -15 26 -28 4 -28 -11 0 -14 -5 -10 -16 3
-9 6 -20 6 -26 0 -6 11 -8 25 -6 36 7 52 -15 31 -47 -9 -13 -16 -31 -16 -39 0
-14 27 -31 44 -27 8 2 4 -38 -7 -84 -3 -11 -6 -26 -6 -33 -1 -10 -5 -10 -17 2
-17 18 -28 21 -20 7 4 -5 0 -12 -6 -14 -8 -3 -6 -6 5 -6 10 -1 17 -9 17 -22 0
-17 4 -19 23 -13 21 6 22 6 4 -14 -17 -19 -17 -22 -1 -58 9 -22 18 -34 21 -27
3 8 12 9 34 1 16 -5 35 -8 42 -5 8 3 14 -1 14 -9 0 -8 -2 -12 -5 -9 -3 2 -14
0 -25 -6 -13 -7 -17 -7 -13 -1 10 16 -11 24 -34 12 -19 -10 -19 -11 -2 -29 9
-10 20 -16 24 -14 4 2 9 -1 13 -7 3 -6 -4 -10 -17 -10 -16 0 -19 -3 -10 -9 8
-4 13 -11 12 -15 -3 -11 51 -170 62 -183 6 -7 8 -13 5 -13 -6 0 43 -138 68
-195 7 -16 19 -47 25 -67 6 -21 21 -45 32 -53 19 -12 19 -16 7 -31 -13 -16
-11 -17 16 -12 26 5 27 4 12 -7 -9 -7 -17 -18 -17 -25 0 -10 3 -10 15 0 12 10
16 9 21 -3 3 -8 13 -14 22 -12 9 1 23 -3 31 -9 12 -9 13 -8 6 3 -6 11 -4 13 9
8 11 -4 28 1 43 13 21 16 23 21 10 26 -9 3 -20 3 -26 0 -5 -4 -12 -2 -16 4 -3
5 -15 10 -26 10 -18 0 -18 1 2 21 16 16 24 18 33 9 6 -6 7 -10 1 -8 -5 2 -10
-2 -10 -7 0 -6 12 -9 27 -8 19 1 28 -4 33 -20 4 -12 7 -25 6 -29 0 -3 7 -5 17
-3 9 2 26 4 37 5 18 1 19 2 3 13 -11 9 -14 18 -8 27 10 16 3 33 -11 25 -5 -4
-9 0 -9 8 0 8 -6 20 -14 27 -8 6 -12 18 -9 26 4 10 10 4 22 -18 17 -35 57 -54
44 -22 -5 13 -3 16 10 11 12 -5 17 -1 17 13 0 25 -15 33 -40 20 -16 -9 -20 -8
-20 5 0 8 -5 15 -11 15 -6 0 -4 7 5 15 8 8 19 15 25 15 14 0 14 6 -1 33 -7 12
-14 33 -15 47 -7 48 -11 54 -30 39 -19 -16 -23 -16 -34 3 -13 20 -11 31 6 24
23 -8 37 27 20 50 -8 11 -14 14 -15 7 0 -7 -11 -13 -25 -13 -14 0 -25 -4 -25
-10 0 -5 -7 -10 -15 -10 -11 0 -9 8 8 34 12 18 25 32 29 30 16 -10 17 17 2 60
-12 33 -21 46 -31 42 -8 -3 -12 -2 -8 3 3 5 -4 26 -16 45 -12 21 -16 36 -10
36 7 0 14 -7 16 -15 15 -46 18 -51 22 -33 2 9 -3 31 -13 49 -17 33 -42 98 -96
249 -34 96 -53 124 -68 100 -5 -8 -13 -11 -17 -6 -4 4 1 14 12 22 23 17 22 41
-5 101 -11 23 -21 52 -24 65 -9 46 -18 59 -37 53 -13 -5 -19 -1 -19 10 0 11 5
15 15 11 8 -3 15 -1 15 4 0 6 -4 10 -10 10 -5 0 -10 7 -10 15 0 8 -4 15 -10
15 -5 0 -10 -9 -10 -21z"/>
<path d="M1467 3817 c2 -4 -9 -10 -26 -13 -18 -4 -28 -11 -24 -17 3 -6 1 -7
-5 -3 -18 11 -14 26 5 26 9 0 14 3 11 6 -4 3 -22 1 -42 -4 -47 -13 -83 -48
-45 -44 3 1 12 -17 19 -38 7 -22 16 -37 21 -35 4 3 5 -4 2 -15 -3 -11 0 -20 6
-20 5 0 8 -7 5 -15 -4 -8 -2 -15 3 -15 5 0 9 -10 10 -22 3 -34 25 -49 61 -42
17 4 29 10 26 15 -3 5 0 9 5 9 6 0 11 -4 11 -9 0 -5 21 -11 48 -13 45 -5 100
-26 172 -68 19 -11 31 -20 26 -20 -4 0 5 -12 21 -27 15 -16 34 -40 40 -55 13
-29 33 -38 33 -15 0 8 4 7 10 -3 8 -12 10 -9 10 12 0 15 5 30 11 34 7 4 9 -2
7 -14 -2 -12 2 -21 7 -21 6 0 9 7 7 15 -2 8 2 14 8 14 5 0 10 -12 10 -26 0
-14 -4 -23 -10 -19 -17 11 -11 -17 8 -32 9 -8 11 -12 5 -8 -19 9 -16 -10 7
-47 22 -36 26 -58 10 -58 -5 0 -10 8 -10 19 0 10 -13 34 -30 52 -32 37 -37 50
-17 45 6 -1 9 -1 5 1 -4 2 -6 10 -4 16 1 7 1 9 -1 5 -3 -5 -13 -8 -24 -8 -18
0 -18 -2 6 -27 14 -16 21 -29 15 -31 -6 -2 -6 -10 0 -23 6 -10 8 -19 5 -19 -3
0 5 -17 18 -37 17 -28 23 -51 21 -83 -1 -25 4 -57 11 -72 7 -16 9 -28 5 -28
-5 0 -7 -6 -4 -14 3 -8 0 -24 -6 -36 -8 -15 -8 -25 0 -34 8 -10 6 -15 -6 -20
-13 -5 -15 -15 -11 -49 2 -23 3 -36 0 -29 -3 6 -9 12 -15 12 -6 0 -8 -7 -4
-15 3 -8 1 -15 -4 -15 -6 0 -10 -9 -10 -21 0 -12 -4 -17 -11 -14 -6 4 -13 -2
-16 -13 -3 -14 -11 -19 -25 -17 -14 3 -18 0 -14 -10 3 -8 2 -14 -2 -14 -19 3
-39 -3 -60 -19 l-22 -17 26 -73 c19 -50 31 -71 41 -68 15 6 18 -10 3 -19 -7
-4 -8 -11 -2 -18 6 -7 9 -27 7 -45 l-3 -32 19 21 c12 14 19 17 19 9 0 -9 8 -6
20 8 12 12 25 22 30 22 5 0 20 11 35 24 20 19 23 25 12 35 -8 6 -16 8 -20 5
-3 -3 -4 1 -3 10 3 23 22 39 38 33 8 -3 4 -8 -12 -15 -28 -12 -27 -13 15 -17
25 -2 30 1 31 21 1 14 -4 24 -11 24 -11 0 -24 28 -25 53 0 20 22 3 32 -23 8
-23 13 -28 23 -20 7 6 21 12 31 14 45 9 75 27 84 50 5 13 14 27 20 31 5 3 8
11 5 16 -4 5 -2 9 3 9 6 0 16 15 23 33 32 85 36 97 32 97 -3 0 2 12 12 26 9
15 12 23 6 20 -6 -4 -11 -3 -11 3 0 5 4 12 9 16 16 9 9 65 -9 75 -10 5 -21 6
-25 2 -5 -4 -5 -2 -2 5 4 6 1 14 -5 16 -10 4 -10 6 0 6 23 2 52 41 52 70 0 52
-12 92 -26 87 -7 -3 -15 0 -18 7 -2 7 -5 5 -5 -5 -1 -9 -6 -20 -13 -24 -6 -4
-8 -3 -4 4 3 5 0 13 -6 16 -17 6 21 38 38 32 10 -4 10 2 2 25 -5 16 -13 27
-16 25 -4 -2 -8 12 -9 32 -1 19 -7 38 -13 42 -6 4 -8 14 -4 23 3 9 2 17 -4 17
-6 0 -14 14 -17 31 -6 24 -9 28 -17 18 -7 -10 -8 -8 -4 7 5 14 -8 41 -44 92
-84 120 -214 213 -347 247 -76 20 -92 19 -102 -7 l-8 -22 -5 22 c-6 21 -11 22
-76 20 -38 -2 -68 -6 -65 -11z"/>
<path d="M6560 3813 c0 -13 -3 -14 -8 -5 -7 10 -16 10 -43 1 -19 -7 -38 -15
-44 -19 -5 -4 -27 -13 -48 -20 -20 -6 -35 -16 -32 -21 4 -5 1 -9 -4 -9 -6 0
-11 5 -11 11 0 5 -5 7 -10 4 -6 -4 -8 -10 -5 -15 3 -4 -3 -7 -12 -6 -36 6
-173 -45 -173 -63 0 -4 -11 -6 -24 -4 -15 3 -31 -2 -43 -14 -10 -10 -30 -18
-46 -17 -15 1 -31 -4 -37 -11 -21 -25 54 -176 79 -160 7 3 8 0 5 -9 -3 -9 -10
-16 -15 -16 -5 0 -9 -9 -9 -20 0 -11 6 -20 13 -20 23 0 112 38 112 48 0 15 13
26 35 27 16 1 18 -1 7 -14 -10 -12 -9 -14 6 -8 10 4 20 7 22 7 2 0 1 10 -2 23
-4 20 -3 21 10 5 13 -16 18 -17 53 -4 30 10 39 18 38 35 -1 16 3 21 14 16 12
-4 13 -3 2 10 -10 12 -9 16 5 21 19 8 36 -12 28 -33 -7 -18 0 -17 90 15 43 16
74 32 70 37 -4 4 0 5 11 1 10 -3 25 -1 34 6 8 7 21 13 28 13 8 0 14 5 14 10 2
23 -65 191 -79 202 -22 17 -31 16 -31 -4z"/>
<path d="M1257 3765 c-9 -8 -21 -15 -27 -15 -7 0 -10 -6 -7 -13 3 -9 -10 -17
-39 -25 -24 -7 -53 -21 -63 -31 -11 -11 -21 -17 -24 -15 -3 3 -30 -20 -60 -51
-80 -82 -136 -194 -140 -282 -1 -17 -5 -35 -10 -39 -4 -4 -7 -27 -7 -50 0 -32
4 -44 18 -47 16 -4 16 -5 0 -6 -10 0 -18 -5 -18 -9 0 -9 42 -8 58 2 8 5 10 2
6 -9 -4 -9 -12 -14 -19 -11 -20 7 -46 -26 -35 -44 7 -10 10 -11 10 -2 0 6 7
12 16 12 8 0 12 5 9 10 -3 6 1 10 9 10 9 0 16 6 16 13 0 6 7 3 16 -8 13 -18
12 -20 -8 -29 -13 -5 -26 -8 -30 -8 -5 1 -8 -5 -8 -13 0 -9 -10 -15 -22 -16
-16 0 -18 -2 -8 -6 8 -3 18 -11 22 -17 4 -6 12 2 18 19 11 29 12 30 26 10 8
-11 13 -30 11 -43 -3 -14 2 -26 12 -32 10 -6 11 -10 4 -10 -16 0 -17 -30 -2
-30 5 0 7 5 3 12 -5 8 -2 9 10 5 10 -4 15 -3 11 3 -3 6 -1 10 4 10 6 0 11 4
11 10 0 5 -6 7 -14 4 -8 -3 -17 -1 -21 5 -3 6 0 11 7 12 7 0 21 2 30 4 10 2
21 -2 25 -7 3 -7 1 -8 -5 -4 -7 4 -12 3 -12 -2 0 -6 7 -12 15 -16 8 -3 15 -9
14 -13 -3 -20 15 -54 28 -51 8 2 13 8 11 13 -2 6 -7 9 -12 7 -5 -2 -4 4 4 12
13 17 35 22 25 7 -3 -5 -2 -12 3 -15 13 -8 2 -64 -13 -70 -8 -3 -19 2 -25 10
-17 19 -41 18 -33 -1 3 -9 8 -14 10 -11 8 8 31 -18 26 -30 -2 -7 5 -10 20 -9
20 2 24 -1 20 -16 -3 -11 0 -19 7 -19 7 0 10 -7 7 -14 -4 -10 -1 -13 7 -10 8
3 17 1 21 -5 8 -13 -3 -53 -13 -47 -4 2 -15 -7 -25 -20 l-18 -24 26 10 c35 13
34 13 27 -12 -4 -17 -2 -20 11 -15 9 3 24 -1 33 -10 21 -21 1 -31 -23 -11 -9
7 -14 8 -10 2 4 -7 0 -14 -8 -18 -8 -3 -15 -12 -15 -20 0 -9 -6 -13 -13 -10
-16 6 -20 -38 -4 -48 6 -4 20 1 31 10 11 9 16 12 13 6 -9 -15 29 -25 56 -15
l20 8 -21 21 c-18 18 -19 22 -5 33 12 11 17 10 24 -4 6 -9 15 -17 21 -17 6 0
20 -7 30 -17 17 -15 18 -15 18 1 0 9 5 14 10 11 7 -4 6 -13 -1 -27 -10 -18 -8
-19 13 -13 15 4 18 3 10 -3 -10 -7 -9 -12 5 -24 15 -12 22 -13 41 -3 13 7 23
15 22 19 -2 18 13 55 21 50 5 -3 7 -10 4 -15 -3 -5 2 -6 11 -2 12 4 15 2 12
-8 -3 -8 -12 -13 -21 -11 -23 4 -30 -14 -12 -32 15 -14 13 -15 -14 -10 -30 6
-37 0 -32 -28 2 -12 -14 -9 -28 4 -10 11 -11 7 -6 -17 l6 -30 -16 29 c-13 22
-14 30 -5 36 9 6 3 18 -23 45 -20 20 -41 34 -47 30 -8 -5 -7 -11 2 -23 10 -12
10 -14 1 -8 -7 4 -13 2 -13 -3 0 -6 -6 -11 -14 -11 -7 0 -20 -8 -27 -17 -12
-15 -12 -16 6 -9 16 6 18 5 8 -5 -20 -20 70 -69 125 -69 24 0 41 -4 38 -8 -4
-7 41 -9 54 -2 3 1 8 2 13 1 4 0 7 5 7 12 0 6 5 4 11 -6 5 -9 7 -22 4 -27 -8
-13 18 -13 31 -1 8 9 46 18 82 20 7 1 10 6 7 11 -4 6 -3 10 2 9 19 -3 25 2 14
15 -9 10 -7 17 6 27 16 13 17 12 5 -3 -12 -15 -11 -17 7 -15 12 1 21 7 21 14
0 7 4 13 10 13 6 0 6 -9 0 -24 -5 -13 -6 -27 -2 -31 4 -4 -3 -4 -15 -1 -18 6
-22 4 -17 -8 6 -16 34 -30 34 -17 0 5 11 7 25 6 14 -2 22 1 19 6 -3 6 4 7 19
4 15 -4 28 -2 33 6 5 9 2 10 -11 5 -15 -5 -16 -4 -6 8 8 10 9 16 1 21 -6 3 -8
11 -5 16 13 21 -7 30 -28 12 -15 -12 -18 -13 -9 -2 6 9 8 20 4 24 -4 5 -1 5 6
1 17 -10 15 0 -11 79 l-23 69 -90 0 c-110 1 -164 24 -244 106 -49 50 -130 187
-130 220 0 5 -5 10 -11 10 -5 0 -8 4 -5 9 3 5 -1 29 -8 55 -8 25 -12 46 -9 46
3 0 1 6 -3 13 -10 13 -9 102 1 152 8 38 33 91 63 131 26 36 29 59 6 50 -8 -3
-12 -2 -9 4 9 15 26 12 41 -7 12 -16 12 -15 8 7 -5 20 -3 22 5 10 6 -8 11 -10
11 -4 0 6 11 17 25 24 21 12 25 19 21 49 -5 41 -50 164 -70 193 -12 17 -15 17
-29 3z"/>
<path d="M5890 3579 c0 -6 -4 -8 -8 -5 -5 3 -19 -1 -33 -8 -13 -7 -27 -13 -31
-14 -17 -4 -2 -17 19 -16 12 0 20 -4 17 -8 -3 -4 -12 -8 -20 -8 -10 0 -14 -12
-13 -42 1 -24 3 -35 6 -25 2 9 9 17 15 17 5 0 8 -7 5 -15 -4 -8 -2 -17 4 -20
5 -4 7 -11 4 -16 -10 -16 -40 -10 -52 10 -8 12 -19 17 -31 14 -25 -6 -36 22
-14 39 11 9 14 10 8 1 -8 -14 -5 -16 18 -7 14 5 14 7 0 21 -19 19 -75 28 -71
11 1 -7 -5 -12 -13 -13 -8 0 -16 -8 -18 -19 -3 -13 0 -16 9 -11 8 5 10 4 5 -4
-8 -13 14 -81 27 -81 4 0 6 -4 2 -9 -7 -12 22 -87 48 -124 15 -22 22 -26 28
-16 6 11 11 11 20 2 10 -10 6 -15 -15 -23 l-27 -10 18 -32 c10 -18 18 -37 18
-43 1 -23 28 -106 36 -111 5 -3 9 -14 9 -25 0 -11 4 -18 9 -15 5 3 8 -2 7 -12
-1 -13 6 -16 29 -14 22 2 26 0 15 -7 -8 -5 -18 -7 -22 -5 -13 8 -21 -25 -10
-39 5 -6 18 -38 28 -71 12 -38 25 -61 39 -66 11 -5 14 -9 8 -9 -18 -1 -16 -30
1 -37 8 -3 12 -12 10 -19 -3 -7 -1 -16 5 -20 6 -3 11 -16 11 -28 0 -35 16 -53
33 -39 7 7 17 9 21 5 4 -4 4 0 1 9 -5 12 -2 16 11 14 24 -4 30 -27 10 -38 -14
-8 -15 -12 -4 -26 11 -14 10 -15 -5 -9 -10 4 -20 7 -23 7 -2 0 -1 7 2 15 7 17
-11 21 -21 5 -8 -13 14 -80 26 -80 5 0 9 7 9 15 0 8 5 15 10 15 14 0 13 -7 -5
-34 -17 -26 -10 -60 11 -52 8 3 14 1 14 -4 0 -6 -5 -10 -11 -10 -10 0 -6 -20
14 -70 6 -14 10 -28 9 -32 -1 -5 2 -8 7 -8 5 0 11 -13 14 -29 6 -26 10 -29 39
-26 18 2 25 1 16 -1 -18 -5 -23 -16 -13 -26 3 -3 26 6 52 18 25 13 52 24 59
24 6 0 14 7 18 15 3 9 12 12 22 8 11 -4 22 1 30 12 8 10 14 14 14 8 0 -14 31
-11 48 4 16 15 6 57 -10 47 -7 -4 -8 -2 -4 5 10 16 -3 53 -16 45 -7 -5 -8 -2
-3 6 4 6 2 30 -5 51 -12 37 -24 44 -59 40 -7 -2 -10 3 -6 9 4 6 14 9 22 6 12
-5 14 1 10 27 -5 39 -22 73 -39 80 -9 4 -10 6 -1 6 9 1 9 9 2 31 -12 32 -27
38 -47 18 -9 -9 -12 -8 -12 6 0 9 3 15 8 12 4 -2 16 2 27 10 15 11 16 14 3 14
-9 0 -16 6 -15 13 1 30 -4 47 -14 47 -5 0 -8 -4 -4 -9 3 -6 -3 -15 -14 -21
-13 -6 -22 -7 -26 0 -9 14 17 49 32 43 9 -4 8 9 -6 49 -26 78 -31 87 -28 51 2
-18 1 -31 -1 -28 -3 3 -11 0 -18 -6 -16 -13 -43 39 -34 67 6 17 8 17 15 -6 8
-24 8 -24 16 -5 11 29 11 45 -2 45 -5 0 -8 -4 -5 -9 3 -4 -5 -7 -17 -6 -20 2
-22 -2 -21 -34 0 -20 4 -45 8 -56 6 -16 4 -15 -12 5 -13 15 -18 30 -13 40 10
18 4 40 -11 40 -5 0 -6 -10 -3 -22 7 -23 7 -23 -9 -3 -13 18 -13 21 0 32 8 6
11 14 6 17 -11 7 -67 0 -83 -10 -7 -4 -10 -2 -7 7 3 8 16 13 31 12 15 -1 27 3
27 9 0 6 9 8 20 5 11 -3 20 -2 20 3 0 4 8 11 17 14 15 6 15 5 -1 -13 -21 -23
-14 -41 14 -34 36 10 42 28 24 70 -9 21 -18 40 -19 43 -23 75 -29 88 -40 83
-8 -2 -16 6 -21 19 -7 22 -7 22 -15 3 -5 -14 -8 -15 -9 -5 -1 10 -4 9 -10 -5
l-9 -20 -1 20 c-1 18 -1 19 -11 3 -5 -10 -19 -18 -31 -18 -19 0 -58 -34 -58
-51 0 -4 -9 -7 -21 -6 -18 1 -19 3 -4 13 9 7 16 21 15 31 -4 38 0 45 23 41 13
-3 29 2 37 11 13 14 15 14 18 -2 3 -14 7 -16 18 -6 8 6 14 8 14 5 0 -4 10 -1
23 6 12 7 26 11 31 10 5 -2 5 5 1 15 -14 36 -23 73 -18 73 3 0 -5 9 -18 21
-13 12 -23 26 -21 32 2 5 -2 32 -9 58 -9 35 -17 46 -29 44 -13 -3 -16 4 -13
38 1 23 -1 48 -6 56 -11 17 -81 25 -81 10z"/>
<path d="M6525 3266 c-222 -81 -234 -87 -228 -105 3 -12 1 -11 -10 2 -15 18
-16 18 -26 0 -6 -10 -11 -14 -11 -8 0 5 -7 -1 -16 -13 -8 -12 -19 -20 -24 -17
-5 3 -7 -14 -4 -37 2 -29 11 -49 26 -61 13 -10 17 -16 11 -12 -7 3 -13 1 -13
-4 0 -6 4 -11 9 -11 5 0 8 -8 6 -17 -3 -24 23 -75 36 -68 5 4 6 11 3 17 -5 7
-1 9 8 5 9 -3 102 26 207 64 106 38 196 67 202 64 5 -4 8 -1 7 5 -2 7 5 14 14
15 40 7 90 28 80 34 -6 3 -14 20 -18 36 -4 17 -9 35 -13 40 -3 6 -7 19 -9 30
-5 33 -43 105 -55 104 -7 0 -88 -28 -182 -63z"/>
<path d="M4910 3193 c0 -15 -16 -17 -25 -3 -10 15 -28 12 -22 -4 3 -8 0 -17
-8 -20 -9 -3 -12 0 -8 10 6 16 -2 17 -32 4 -12 -5 -14 -9 -6 -9 11 -1 9 -5 -5
-15 -16 -13 -20 -13 -27 0 -10 18 -33 18 -41 -1 -3 -8 -9 -15 -13 -14 -21 4
-33 -2 -27 -12 5 -8 2 -9 -12 -1 -14 8 -26 6 -46 -6 -16 -9 -28 -20 -28 -25 0
-4 -4 -6 -9 -3 -10 7 -6 -9 39 -134 l31 -86 87 29 c48 16 120 32 159 34 64 5
79 3 128 -21 32 -16 70 -45 91 -72 20 -24 40 -41 45 -39 4 3 7 -3 7 -12 -1
-10 10 -36 24 -58 14 -22 28 -50 32 -63 4 -12 12 -20 17 -17 5 4 9 -1 9 -11 0
-11 6 -15 20 -11 11 3 20 1 20 -4 0 -5 -6 -9 -14 -9 -19 0 -29 -17 -19 -32 4
-7 6 -25 4 -40 -1 -17 5 -34 18 -47 12 -12 17 -21 12 -21 -5 0 -9 -15 -9 -32
1 -57 -11 -127 -27 -158 -8 -16 -15 -36 -15 -45 0 -9 -7 -18 -15 -21 -8 -4
-15 -14 -15 -24 0 -14 6 -17 23 -13 20 4 20 3 4 -7 -14 -9 -22 -9 -33 1 -8 6
-18 9 -21 5 -4 -4 -1 -11 6 -15 9 -6 10 -11 2 -15 -6 -4 -15 -5 -20 -1 -5 3
-30 -6 -56 -20 -26 -13 -50 -24 -53 -23 -21 5 -72 -16 -72 -29 0 -10 -6 -13
-16 -9 -25 10 -35 -3 -22 -27 7 -12 13 -24 14 -27 0 -3 3 -12 6 -20 3 -8 16
-44 29 -80 12 -36 24 -67 25 -68 1 -2 47 13 102 33 181 66 313 160 376 268 57
97 93 266 80 370 -6 43 -9 48 -28 43 -21 -5 -21 -5 -1 12 23 20 30 42 18 51
-5 3 -17 35 -26 70 -23 82 -89 217 -130 265 -30 34 -33 35 -53 22 -20 -14 -21
-14 -20 26 1 38 -2 44 -46 79 -99 78 -234 122 -358 118 -34 -2 -50 -6 -50 -16z"/>
<path d="M4526 3081 c-4 -6 -13 -10 -19 -9 -22 4 -68 -12 -62 -22 6 -10 -6
-14 -37 -11 -10 1 -18 -3 -18 -9 0 -6 -4 -9 -9 -5 -16 9 -59 -16 -65 -38 -4
-15 -8 -18 -18 -10 -7 6 -20 8 -29 4 -14 -5 -8 -27 39 -154 36 -95 60 -146 68
-143 7 3 10 -2 7 -15 -3 -10 0 -19 6 -19 7 0 9 -11 6 -30 -3 -17 -1 -30 5 -30
5 0 10 5 10 12 0 6 3 8 6 5 4 -4 1 -13 -5 -21 -9 -11 -9 -22 3 -51 9 -20 20
-34 26 -30 5 3 10 2 10 -4 0 -5 -4 -11 -9 -13 -5 -1 9 -54 32 -115 31 -87 45
-113 59 -113 20 0 24 -16 6 -22 -15 -5 9 -88 28 -95 6 -2 10 -12 8 -21 -2 -9
26 -100 64 -202 48 -133 72 -186 85 -188 12 -3 15 1 11 15 -4 14 -4 15 4 4 8
-11 28 -6 113 26 92 35 104 42 102 62 -2 13 1 20 7 16 6 -3 10 -13 10 -21 0
-8 4 -13 9 -9 10 6 11 45 1 45 -3 0 -16 32 -29 70 -13 39 -28 70 -34 70 -5 0
-7 6 -4 13 6 16 -47 159 -59 157 -5 -1 -8 -9 -6 -18 2 -13 1 -14 -6 -3 -5 7
-12 9 -14 5 -3 -5 -3 -4 -2 3 5 19 -21 34 -34 21 -8 -8 -12 -9 -12 -1 0 17 26
23 40 10 10 -9 11 -9 5 2 -5 9 -1 19 10 28 11 7 13 13 7 13 -7 0 -12 10 -12
23 0 26 -16 54 -26 45 -3 -4 -1 -21 5 -39 15 -43 14 -48 -6 -43 -14 4 -18 16
-18 55 0 31 -5 53 -13 58 -8 5 -13 11 -13 15 3 24 -1 36 -9 31 -8 -5 -7 -11 1
-21 6 -8 8 -14 3 -15 -5 0 -18 -3 -29 -5 -11 -3 -28 -5 -37 -5 -10 0 -18 -7
-18 -15 0 -8 -5 -14 -11 -14 -5 0 -8 4 -5 9 8 12 -36 22 -49 11 -7 -6 -11 -2
-11 11 0 10 6 19 14 19 7 0 10 5 7 10 -4 6 -16 8 -28 4 -21 -6 -21 -6 -4 13
24 28 21 34 -10 22 -34 -13 -18 3 18 18 24 11 26 10 21 -14 -3 -17 -1 -24 6
-19 5 3 15 -7 20 -24 10 -28 12 -29 43 -18 33 11 33 11 11 26 -12 8 -22 19
-22 24 0 7 5 6 13 -1 10 -8 17 -7 26 2 10 9 11 8 6 -8 -7 -20 -6 -20 9 -1 20
25 20 43 0 81 -14 28 -14 29 2 13 9 -9 25 -40 35 -70 10 -29 18 -44 18 -33 0
11 -8 45 -19 75 -11 30 -19 62 -20 71 0 9 -9 24 -21 35 -20 18 -20 18 -13 -11
l7 -30 -21 26 c-12 14 -20 34 -18 45 2 10 1 13 -1 7 -3 -7 -8 -13 -13 -13 -5
0 -7 -7 -4 -15 4 -8 1 -15 -6 -15 -6 0 -8 5 -4 12 5 8 2 9 -11 4 -13 -5 -10 1
9 19 31 28 26 50 -10 41 -18 -5 -24 -2 -24 9 0 10 7 15 17 13 22 -4 26 37 6
58 -8 8 -10 14 -4 14 13 0 32 -35 24 -43 -3 -4 2 -9 11 -13 9 -3 13 -10 10
-15 -3 -5 -10 -6 -16 -3 -7 5 -8 2 -4 -5 5 -7 11 -10 14 -6 3 3 12 -9 20 -27
8 -18 16 -28 19 -21 2 7 -1 22 -8 35 -7 13 -14 29 -15 35 -5 29 -37 103 -45
103 -5 0 -6 6 -4 13 7 18 -101 312 -109 298z"/>
<path d="M3717 2823 c-4 -4 -17 -8 -29 -10 -12 -2 -25 -8 -29 -15 -4 -6 -12
-7 -18 -4 -14 9 -102 -34 -95 -46 3 -4 0 -8 -5 -8 -6 0 -11 4 -11 8 0 5 -7 9
-15 9 -8 0 -15 -7 -15 -14 0 -8 -4 -12 -9 -9 -5 3 -12 -2 -15 -11 -4 -9 -2
-19 4 -23 6 -4 8 -13 5 -21 -3 -8 13 -66 36 -129 23 -63 45 -131 51 -150 5
-19 15 -48 22 -65 8 -16 23 -62 35 -102 13 -40 30 -82 40 -95 10 -13 26 -50
36 -83 10 -33 23 -63 29 -67 5 -3 10 -17 12 -30 3 -35 9 -57 17 -64 4 -4 7
-16 7 -26 0 -10 5 -18 10 -18 6 0 10 -9 10 -20 0 -11 4 -20 10 -20 5 0 7 -6 4
-14 -6 -17 24 -16 34 1 4 6 17 14 30 17 17 6 27 2 42 -16 21 -25 26 -48 10
-48 -5 0 -14 -16 -19 -36 -8 -28 -7 -45 4 -70 8 -19 15 -34 17 -34 8 0 4 76
-4 81 -5 3 -3 13 5 21 8 8 17 23 20 34 4 17 5 17 6 -3 1 -17 6 -20 24 -16 22
6 21 6 -3 -14 -23 -20 -38 -83 -20 -83 13 0 21 35 14 56 -4 10 -4 16 1 12 11
-10 45 10 45 26 0 8 7 19 15 26 13 10 15 9 15 -9 0 -11 -5 -21 -11 -21 -6 0
-8 -8 -4 -19 7 -24 -9 -69 -19 -52 -4 6 -2 19 5 27 16 19 4 30 -14 13 -15 -16
-11 -89 5 -89 6 0 7 -7 4 -16 -3 -8 -2 -12 3 -9 5 3 12 -5 14 -17 3 -13 5 -6
5 17 0 60 1 67 10 61 5 -3 7 -28 4 -56 -3 -47 1 -56 26 -47 4 1 7 9 7 17 0 8
9 16 20 19 17 3 18 1 6 -13 -20 -24 -9 -29 25 -11 39 20 44 41 23 102 -25 74
-37 93 -54 87 -8 -4 -15 -2 -15 4 0 6 5 12 11 14 7 2 8 17 4 41 -4 20 -11 35
-15 32 -5 -3 -6 3 -3 13 2 10 -3 24 -11 31 -9 8 -16 26 -16 42 0 25 -13 43
-32 44 -15 0 -20 15 -5 15 18 0 23 25 7 35 -5 3 -10 14 -10 24 0 42 -31 120
-50 126 -11 4 -20 11 -20 16 0 6 5 7 11 3 8 -4 9 1 4 17 -4 13 -18 60 -32 104
-13 44 -30 94 -38 110 -7 17 -16 44 -20 60 -6 32 -41 129 -56 157 -5 10 -9 24
-9 32 0 19 -54 154 -67 167 -5 5 -13 6 -16 2z"/>
<path d="M6943 2798 c-13 -6 -25 -20 -29 -30 -6 -19 -6 -19 -20 -1 -8 12 -13
13 -14 5 0 -7 -4 -11 -9 -8 -5 3 -73 -18 -152 -48 -79 -29 -187 -68 -239 -86
-52 -18 -96 -34 -98 -35 -5 -4 42 -120 50 -126 5 -3 6 -14 2 -24 -5 -12 -4
-16 3 -12 7 4 14 -5 18 -23 4 -16 10 -32 15 -35 5 -3 73 18 151 46 209 75 196
69 179 79 -10 7 -11 10 -2 10 18 0 27 -4 25 -12 -2 -4 14 0 35 9 20 8 38 14
40 13 6 -5 62 23 62 31 0 5 6 6 14 3 7 -3 20 2 29 10 8 8 17 12 21 9 3 -4 6
-1 6 5 0 7 7 12 16 12 11 0 14 5 10 16 -3 9 -6 17 -6 19 0 2 -17 2 -37 0 -21
-3 -30 -2 -20 1 9 3 17 12 17 20 0 8 7 14 16 14 8 0 12 5 9 10 -3 6 -15 10
-26 10 -20 0 -26 24 -9 35 6 3 10 -1 10 -9 0 -9 8 -16 18 -16 10 0 13 3 6 8
-6 4 -19 31 -29 60 -20 54 -25 58 -62 40z"/>
<path d="M8578 2783 c-21 -9 -38 -19 -38 -24 0 -13 -42 -49 -51 -43 -5 2 -5
12 -2 21 5 13 2 15 -11 10 -10 -4 -20 -7 -22 -7 -3 0 -3 -4 0 -9 3 -5 -1 -12
-10 -15 -8 -3 -12 -2 -9 4 3 6 4 10 2 10 -3 0 -14 -15 -25 -34 -15 -25 -17
-36 -9 -40 7 -4 -4 -4 -23 -1 -22 3 -30 2 -21 -4 9 -6 10 -11 2 -15 -19 -12
-28 2 -23 35 4 29 3 31 -10 18 -9 -8 -13 -20 -10 -28 3 -9 1 -12 -6 -7 -8 5
-10 -3 -6 -26 3 -19 2 -28 -3 -22 -4 6 -18 14 -31 18 -12 4 -20 12 -16 17 3 6
12 8 19 5 7 -2 15 4 18 15 4 16 3 17 -16 7 -12 -7 -31 -13 -42 -13 -11 0 -26
-4 -32 -8 -7 -5 -13 -5 -13 0 0 4 -5 0 -11 -10 -7 -12 -17 -16 -30 -12 -11 4
-19 2 -19 -5 0 -6 -5 -8 -10 -5 -6 3 -13 0 -16 -8 -3 -9 -14 -12 -30 -9 -14 2
-24 0 -24 -7 0 -7 -4 -10 -8 -7 -5 3 -23 -4 -40 -15 -18 -10 -40 -19 -49 -19
-14 0 -14 -2 3 -15 16 -12 17 -16 4 -24 -19 -13 -41 5 -34 27 3 9 -2 6 -11 -8
-9 -14 -14 -17 -11 -7 7 21 -1 21 -49 1 -31 -13 -36 -19 -32 -40 3 -19 2 -22
-9 -13 -8 6 -12 14 -9 18 2 4 -4 7 -13 6 -18 -2 -27 -5 -108 -37 -29 -11 -60
-21 -70 -22 -10 -2 -20 -8 -22 -14 -2 -7 -8 -9 -13 -6 -6 3 -16 0 -24 -6 -8
-6 -19 -9 -25 -5 -5 3 -10 1 -10 -5 0 -6 -4 -8 -10 -5 -5 3 -10 1 -10 -4 0 -6
-3 -10 -7 -8 -5 1 -8 -3 -8 -8 0 -5 3 -9 7 -8 4 2 5 -4 1 -13 -5 -14 -9 -13
-24 7 l-17 24 -7 -28 c-4 -15 -11 -24 -16 -21 -5 3 -7 10 -4 15 4 5 -3 9 -13
9 -22 0 -45 -31 -55 -71 -7 -26 -42 -45 -52 -29 -7 11 -45 4 -59 -10 -15 -15
-37 -12 -59 8 -19 16 -19 16 -13 -5 4 -13 3 -31 -3 -40 -6 -10 -11 -12 -11 -5
0 6 -8 12 -17 13 -15 0 -15 2 2 9 11 5 14 9 7 9 -16 1 -52 -19 -70 -39 -12
-13 -13 -13 -8 3 3 9 1 17 -4 17 -6 0 -10 -6 -11 -12 0 -7 -4 -4 -9 7 -5 11
-9 14 -9 8 -1 -7 -11 -13 -23 -13 -19 0 -20 -2 -8 -10 11 -7 11 -10 2 -10 -7
0 -10 -5 -6 -12 5 -7 12 -5 22 8 14 18 14 18 8 1 -3 -10 -6 -23 -6 -29 0 -6
-7 -8 -15 -5 -8 4 -17 2 -20 -3 -9 -14 -21 -12 -40 6 -13 14 -14 19 -3 25 10
7 9 9 -4 9 -18 0 -20 -23 -5 -47 5 -9 0 -10 -22 -3 -16 4 -32 6 -35 2 -3 -3
-6 0 -6 7 0 8 7 10 20 6 19 -6 27 4 14 17 -10 10 -84 -25 -84 -40 0 -12 -3
-12 -16 -1 -14 11 -19 10 -35 -10 -13 -16 -24 -21 -39 -16 -28 9 -78 -12 -85
-36 -4 -10 -13 -19 -20 -19 -9 0 -12 6 -8 17 5 13 3 15 -13 9 -10 -5 -32 -13
-49 -18 -16 -6 -38 -18 -48 -26 -9 -8 -20 -13 -23 -10 -6 7 -162 -48 -180 -63
-7 -6 -17 -8 -22 -5 -6 3 -18 -6 -27 -20 -9 -15 -12 -23 -6 -20 6 4 11 2 11
-3 0 -13 -13 -14 -26 -2 -10 11 -114 -5 -128 -20 -6 -5 -20 -9 -33 -9 -18 0
-23 -5 -23 -27 0 -25 1 -25 13 -9 8 11 19 17 26 15 7 -3 0 -16 -19 -34 -28
-27 -30 -27 -30 -8 0 20 -3 20 -36 10 -28 -8 -37 -8 -43 2 -9 14 -26 -2 -18
-16 2 -5 -7 -18 -20 -30 -15 -15 -23 -18 -23 -9 0 8 7 16 15 20 8 3 15 11 15
17 0 7 -13 -2 -28 -19 -28 -31 -57 -35 -89 -10 -7 5 -14 5 -18 -2 -3 -5 -14
-10 -24 -10 -10 0 -26 -10 -37 -22 -10 -12 -14 -18 -7 -15 6 4 15 2 19 -4 5
-9 -2 -10 -27 -5 -40 8 -182 -31 -172 -47 4 -6 -1 -8 -11 -4 -14 6 -465 -149
-501 -171 -5 -4 -15 -7 -21 -8 -11 -2 -398 -142 -874 -316 -151 -56 -313 -115
-360 -131 -47 -17 -88 -35 -92 -41 -4 -6 -8 -8 -8 -4 0 6 -184 -54 -240 -79
-8 -3 -17 -7 -20 -8 -19 -4 -90 -30 -115 -40 -16 -7 -38 -16 -48 -19 -15 -5
-16 -10 -7 -28 11 -22 10 -22 -4 -4 -18 22 -35 18 -165 -32 -71 -28 -128 -72
-95 -73 15 0 14 -2 -6 -11 -14 -6 -33 -10 -44 -9 -12 2 -16 -1 -11 -10 5 -8 4
-10 -3 -5 -19 11 -14 26 8 26 10 0 24 9 30 20 7 14 7 20 0 20 -5 0 -10 -4 -10
-8 0 -5 -6 -9 -12 -9 -7 0 -35 -9 -61 -20 -42 -17 -46 -21 -33 -32 23 -19 20
-38 -6 -45 -35 -9 -38 -8 -35 15 1 12 -4 24 -12 27 -10 3 -12 0 -8 -11 4 -10
-1 -17 -14 -20 -17 -4 -18 -3 -8 9 9 11 8 14 -5 14 -9 0 -16 -4 -16 -10 0 -5
-8 -10 -19 -10 -25 0 -88 -27 -97 -41 -5 -8 -8 -8 -13 0 -5 8 -16 8 -42 0 -41
-14 -61 -28 -54 -39 3 -5 -7 -7 -22 -5 -31 3 -55 -4 -48 -14 2 -4 -6 -7 -18
-7 -12 1 -21 -4 -20 -10 1 -7 -6 -10 -20 -7 -13 3 -18 1 -11 -4 6 -4 13 -16
17 -25 4 -12 2 -15 -9 -11 -7 3 -14 9 -14 14 0 14 -20 10 -38 -8 -16 -16 -17
-15 -20 1 -2 9 -9 15 -15 12 -7 -3 -19 -9 -28 -12 -9 -3 -22 -15 -28 -27 -6
-12 -9 -14 -7 -5 4 13 1 15 -12 11 -9 -4 -20 -11 -24 -17 -5 -8 -8 -7 -8 1 0
9 -7 8 -27 -2 -15 -8 -30 -12 -35 -9 -4 3 -8 0 -8 -6 0 -7 -7 -10 -15 -7 -8 4
-17 2 -20 -2 -2 -5 -17 -12 -32 -15 -16 -4 -54 -17 -85 -28 -50 -18 -58 -24
-59 -47 0 -25 -1 -25 -9 -4 -11 26 -44 21 -35 -6 2 -9 7 -30 9 -46 2 -17 14
-56 26 -89 17 -43 25 -55 32 -45 7 10 8 6 4 -13 -4 -16 -2 -28 4 -28 10 0 14
14 10 39 -1 13 1 13 14 2 12 -11 14 -17 5 -27 -9 -11 -8 -18 2 -31 10 -11 10
-14 2 -9 -8 4 -13 2 -13 -8 0 -13 4 -13 37 0 21 8 52 22 68 31 17 10 31 16 33
15 10 -8 20 2 25 24 l4 25 -23 -22 c-24 -22 -35 -14 -12 9 9 9 9 12 1 12 -7 0
-15 -5 -18 -10 -3 -6 -15 -10 -26 -10 -10 0 -19 -4 -19 -9 0 -5 9 -7 20 -4 11
3 20 0 20 -6 0 -6 -7 -11 -16 -11 -8 0 -23 -7 -32 -16 -14 -15 -17 -15 -29 1
-7 10 -10 22 -7 27 3 5 1 15 -6 23 -8 10 -8 15 2 21 7 4 10 4 6 -1 -4 -4 -1
-17 7 -27 7 -11 11 -27 8 -36 -4 -10 -2 -13 6 -8 6 4 11 13 10 19 -3 19 12 47
22 41 5 -3 9 0 9 6 0 7 6 10 12 8 7 -3 19 1 26 9 7 7 19 13 25 13 8 0 8 -3 -1
-9 -10 -6 -8 -10 8 -14 17 -4 20 -10 15 -26 -6 -20 4 -28 19 -14 3 4 13 8 22
9 29 4 113 38 109 43 -1 3 11 7 27 8 34 3 50 13 30 20 -10 4 -9 10 5 25 16 18
17 21 1 32 -11 8 -14 17 -7 27 7 12 9 11 9 -2 0 -9 7 -20 16 -23 21 -8 26 -8
20 2 -3 5 20 8 50 7 36 -1 59 -7 65 -16 7 -12 9 -11 9 2 0 19 50 33 50 15 0
-6 6 -4 13 4 7 8 23 16 37 17 14 2 39 5 55 7 17 3 34 5 38 5 5 1 5 6 2 11 -3
6 1 10 9 10 27 0 31 1 46 15 15 13 78 31 94 26 5 -1 6 7 3 19 -3 13 1 24 13
30 28 15 53 12 46 -5 -6 -17 9 -21 19 -5 4 6 11 8 16 5 5 -4 9 -2 9 4 0 5 -6
12 -12 14 -10 4 -10 6 0 6 7 1 25 12 39 25 25 24 49 24 66 2 5 -6 5 0 2 12 -6
21 -5 23 13 13 15 -8 22 -8 25 2 3 9 9 9 26 -1 18 -10 21 -10 21 5 0 13 2 15
8 5 7 -10 21 -8 65 9 46 18 55 24 46 36 -7 7 -9 16 -5 20 3 3 6 1 6 -5 0 -17
46 -15 105 4 28 9 57 17 65 18 8 2 15 13 14 25 0 15 4 20 13 17 8 -3 16 1 20
10 3 9 13 14 24 11 10 -3 20 2 23 10 9 23 7 30 -4 13 -8 -12 -10 -11 -10 7 0
31 -19 39 -28 12 -7 -18 -10 -19 -15 -6 -5 12 17 32 31 27 1 0 10 6 18 15 17
17 34 20 34 6 0 -5 -9 -11 -21 -14 -13 -3 -18 -10 -14 -17 4 -7 16 -10 26 -7
19 5 25 -4 12 -17 -19 -18 -9 -32 19 -28 22 3 27 7 17 14 -10 6 -2 8 23 6 20
-2 36 -1 36 2 -2 19 3 30 12 25 6 -4 9 3 7 16 -1 12 4 24 12 27 10 3 11 -2 6
-19 -7 -20 -6 -22 7 -12 11 10 17 10 26 1 15 -15 15 -4 1 25 -9 20 -9 20 4 5
21 -26 27 -22 21 12 -5 21 -3 30 7 30 8 0 5 6 -7 14 -21 16 -21 16 33 31 7 2
15 -5 18 -16 5 -15 10 -17 20 -9 10 8 15 8 20 0 5 -8 10 -8 20 0 14 12 95 3
95 -11 0 -5 7 -9 15 -9 14 0 19 12 16 33 0 4 6 7 14 7 8 0 23 8 33 18 20 20
52 25 49 8 -2 -11 34 -16 43 -6 5 6 132 50 154 54 6 1 20 7 31 13 17 10 17 13
5 29 -14 18 -14 18 10 3 25 -15 60 -15 60 1 0 4 6 8 13 7 32 -1 48 4 42 13 -3
5 0 7 8 4 11 -4 31 2 77 22 3 1 16 5 28 9 18 6 20 10 10 16 -9 6 -7 9 10 9 12
0 22 5 22 10 0 6 5 10 11 10 5 0 8 -4 5 -9 -4 -5 2 -8 11 -6 10 2 20 4 22 4 3
1 -4 7 -14 15 -19 13 -18 14 7 13 14 -1 24 -5 22 -8 -2 -4 3 -9 11 -13 9 -3
15 0 15 9 0 9 6 12 15 9 11 -5 13 -2 8 12 -5 13 -3 15 8 8 25 -15 41 -14 34 4
-5 13 -3 14 6 5 16 -16 70 3 62 23 -3 8 -1 14 5 14 6 0 12 -5 14 -11 3 -9 10
-9 26 0 13 7 20 16 17 21 -3 6 6 22 21 37 15 16 22 20 15 11 -12 -16 -11 -18
10 -18 13 0 33 -3 44 -5 11 -3 27 -1 35 5 12 8 13 13 2 30 -14 23 -7 27 13 6
8 -7 11 -16 8 -20 -4 -3 -3 -6 0 -6 10 0 91 33 97 39 3 3 11 6 18 7 6 1 18 2
26 3 8 0 18 10 21 21 3 11 14 20 23 20 15 -1 14 -3 -2 -15 -11 -8 -15 -15 -9
-15 7 0 18 6 25 12 7 7 24 15 37 16 43 6 71 21 71 37 0 16 15 20 24 6 7 -10
66 8 90 28 9 7 27 11 41 9 20 -4 23 -2 15 7 -8 10 -7 15 1 21 8 4 9 3 5 -4 -8
-13 4 -15 28 -6 9 3 13 11 10 16 -4 6 1 8 13 4 21 -7 163 40 174 57 4 5 12 6
18 3 12 -8 19 4 24 41 2 12 7 26 11 30 5 5 5 -6 2 -23 -5 -24 -3 -31 9 -31 9
0 14 6 11 14 -3 7 -1 13 3 13 5 0 12 -8 15 -17 4 -10 10 -13 14 -8 4 6 24 19
45 29 20 11 37 23 37 28 0 4 5 8 11 8 5 0 8 -4 4 -9 -3 -6 4 -9 15 -8 20 1 29
17 10 17 -5 0 -10 7 -10 16 0 12 5 15 23 9 28 -9 79 -8 86 2 3 5 17 10 31 11
14 2 32 8 40 14 12 8 12 9 -2 4 -19 -6 -26 18 -8 29 6 3 10 1 10 -4 0 -6 4
-11 10 -11 5 0 6 8 3 17 -5 12 -2 15 10 10 20 -7 22 4 5 21 -17 17 -1 27 18
12 10 -9 18 -10 22 -3 10 15 39 12 39 -4 0 -7 -11 -13 -23 -13 -13 0 -28 -9
-34 -20 -9 -16 -8 -20 5 -20 8 0 15 5 15 10 0 7 7 7 20 0 16 -9 22 -8 26 5 3
8 12 15 20 15 7 0 18 8 23 18 6 9 11 12 11 5 0 -7 6 -10 14 -7 8 3 12 13 9 23
-3 12 2 20 17 24 17 4 20 2 15 -13 -3 -10 0 -22 6 -26 8 -4 9 -3 5 4 -4 7 -1
13 8 13 24 2 29 4 54 17 12 7 27 10 32 7 21 -13 9 13 -17 35 -22 19 -29 21
-45 11 -18 -11 -19 -9 -16 15 2 22 12 31 48 46 24 11 41 16 37 12 -4 -4 -2
-13 4 -20 7 -9 4 -18 -13 -35 -13 -12 -18 -19 -11 -15 6 3 14 2 18 -4 4 -6 11
-8 16 -5 5 4 12 0 15 -9 3 -8 12 -12 21 -9 13 5 13 7 0 14 -9 6 -13 20 -11 39
2 17 0 28 -5 25 -5 -3 -13 -1 -16 5 -4 6 -3 10 2 9 20 -3 24 2 13 17 -11 12
-11 15 0 12 7 -2 15 3 18 11 3 10 -1 13 -17 8 -11 -3 -19 -1 -15 4 8 14 44 11
44 -4 0 -7 -5 -18 -12 -25 -9 -9 -9 -12 0 -12 8 0 11 -10 8 -27 -4 -19 2 -36
15 -53 12 -14 18 -19 14 -12 -3 6 -2 12 4 12 5 0 22 5 38 11 107 44 248 90
280 93 11 0 19 4 17 7 -2 4 49 26 114 49 242 88 228 81 207 96 -22 16 -16 18
19 4 28 -10 89 5 71 18 -13 9 -16 44 -4 36 5 -3 12 2 15 11 6 13 8 14 15 3 7
-10 9 -9 9 5 0 9 5 17 11 17 6 0 8 -7 5 -16 -3 -9 -6 -20 -6 -26 0 -7 -5 -7
-13 1 -17 13 -31 2 -17 -14 14 -17 131 22 123 41 -3 9 1 14 12 14 9 0 14 4 11
8 -3 5 8 16 25 26 16 10 29 12 29 6 0 -7 7 -6 19 2 11 7 17 17 13 23 -3 5 2 4
11 -4 9 -7 17 -9 17 -3 0 5 7 12 14 15 10 4 13 1 10 -7 -3 -8 0 -17 6 -21 6
-3 10 -3 9 2 -3 20 2 23 22 13 19 -11 20 -10 9 9 -7 14 -7 21 0 21 5 0 10 -4
10 -9 0 -5 7 -12 16 -15 10 -4 13 -2 8 6 -5 7 1 9 18 5 31 -8 46 8 44 46 -1
15 2 27 6 27 4 0 8 -15 8 -32 0 -18 4 -28 8 -22 11 17 57 30 47 14 -5 -9 -4
-11 3 -6 7 4 12 18 12 32 0 14 -4 22 -10 19 -5 -3 -10 -1 -10 5 0 14 59 9 72
-7 14 -17 -13 -18 -29 -2 -9 9 -11 7 -7 -9 5 -16 27 -23 42 -12 3 3 19 7 32 9
5 0 9 7 7 14 -2 12 4 13 51 16 15 1 22 7 22 21 0 11 6 19 13 18 6 -2 11 5 10
15 0 10 2 16 5 13 3 -3 11 -1 17 4 9 8 14 3 18 -17 5 -26 4 -26 -9 -8 -8 10
-14 14 -14 8 0 -23 26 -33 46 -17 13 11 15 17 7 20 -17 7 -16 20 3 43 19 21
46 18 37 -5 -3 -8 -8 -12 -12 -10 -4 3 -13 0 -21 -6 -12 -8 -11 -9 3 -4 15 5
17 2 13 -17 -3 -12 -3 -16 0 -9 3 6 11 9 16 6 7 -4 8 -2 4 4 -4 7 -1 12 9 12
9 0 14 3 11 8 -2 4 13 6 35 5 23 -1 37 2 34 8 -4 5 -14 9 -23 9 -10 0 -23 9
-30 20 -7 12 -8 20 -2 20 5 0 10 -4 10 -9 0 -14 33 -18 53 -7 12 7 20 8 25 1
10 -14 52 -19 52 -6 0 6 -6 8 -14 5 -9 -3 -19 4 -27 17 l-12 22 37 -21 c35
-21 36 -21 48 -2 9 14 16 16 30 9 12 -6 18 -6 18 1 0 5 -4 10 -10 10 -5 0 -10
7 -10 15 0 19 7 19 25 1 8 -7 11 -17 7 -21 -4 -5 1 -5 11 -2 10 4 20 7 23 7 2
0 1 8 -2 18 -4 12 -3 13 3 4 10 -13 76 -6 68 8 -3 5 3 6 14 3 12 -3 26 5 41
24 13 15 21 21 17 12 -4 -12 0 -15 20 -11 15 3 20 7 13 12 -8 5 -7 9 4 13 9 4
16 18 16 32 0 19 5 25 21 25 11 0 18 -4 15 -9 -4 -5 4 -7 16 -3 16 4 19 2 13
-8 -5 -9 -4 -11 3 -6 18 11 15 39 -3 32 -8 -3 -15 -1 -15 4 0 6 5 10 10 10 6
0 10 7 10 16 0 11 -6 14 -22 9 -21 -6 -22 -5 -5 8 19 16 23 37 6 37 -5 0 -8 4
-5 9 3 5 -2 26 -11 47 -9 22 -16 43 -15 47 1 4 -6 3 -17 -3 -26 -14 -31 -13
-25 5 4 8 1 15 -6 15 -10 0 -10 3 0 15 7 8 11 15 9 14 -2 -1 -21 -8 -41 -16z"/>
<path d="M3376 2703 c-4 -4 -17 -8 -29 -10 -12 -2 -29 -6 -37 -10 -8 -3 -24
-8 -34 -10 -11 -2 -25 -8 -31 -13 -7 -5 -15 -7 -18 -3 -4 3 -7 1 -7 -6 0 -7
-6 -11 -12 -8 -19 7 -66 -24 -73 -47 -4 -13 -8 -16 -12 -8 -3 8 -11 5 -24 -10
-17 -21 -18 -21 -19 -4 0 14 -3 16 -13 7 -8 -6 -16 -8 -19 -5 -9 8 -63 -22
-104 -58 -107 -94 -137 -230 -83 -381 54 -151 149 -229 282 -229 20 0 37 -2
37 -5 0 -3 -15 -19 -33 -37 -46 -43 -57 -78 -52 -171 1 -44 4 -80 5 -80 10 0
25 -187 24 -303 -1 -94 1 -111 12 -101 8 6 14 9 14 5 0 -5 39 8 115 39 11 4
29 10 40 12 11 2 22 8 23 13 2 6 7 8 12 5 15 -9 71 17 66 31 -3 7 -1 16 4 19
13 8 13 37 0 71 -10 26 -11 26 -30 9 -11 -10 -20 -14 -20 -9 0 5 -5 2 -11 -6
-8 -12 -9 -11 -6 5 2 11 9 19 15 18 7 -2 12 1 12 5 0 17 -13 20 -36 10 -18 -8
-23 -17 -19 -32 5 -19 5 -19 -5 -3 -6 9 -17 15 -23 11 -7 -4 2 7 18 23 17 16
36 27 44 25 9 -4 11 1 7 15 -5 15 -1 22 13 26 21 5 25 -12 6 -25 -12 -9 8 -31
30 -34 13 -2 15 6 10 44 -8 74 -14 84 -40 78 -14 -4 -28 0 -36 10 -11 14 -10
16 11 14 14 -1 31 -2 38 -1 16 1 15 28 -2 38 -7 4 -17 19 -21 32 -5 16 -4 21
4 17 6 -4 12 0 12 8 1 9 3 21 4 26 1 6 3 24 4 41 1 20 5 28 12 23 8 -5 10 1 7
20 -5 25 -3 27 17 22 17 -4 24 -1 28 15 3 12 10 18 16 14 7 -3 8 0 5 9 -3 9
-2 16 4 16 6 0 12 -6 15 -12 6 -19 18 -4 21 26 1 14 6 29 9 33 7 7 11 -12 7
-36 -1 -10 4 -11 17 -6 10 4 40 13 67 20 58 16 66 23 43 36 -9 6 -17 15 -17
20 0 6 4 8 9 4 11 -6 -17 83 -31 102 -5 6 -10 27 -10 45 -1 45 -6 50 -31 36
-12 -7 -28 -11 -34 -10 -7 2 -13 -3 -13 -9 0 -7 -3 -9 -7 -6 -3 4 -12 2 -20
-4 -7 -6 -13 -9 -13 -6 0 4 -19 -1 -42 -9 -58 -22 -114 -29 -185 -25 -13 0
-41 19 -63 41 -44 44 -76 129 -64 175 7 30 78 105 99 105 7 0 30 8 51 17 22 9
41 17 44 18 3 0 15 6 28 13 12 7 22 10 22 6 0 -3 7 0 17 7 9 8 18 13 20 12 1
-2 4 -3 6 -2 1 0 10 2 21 4 33 6 38 20 22 60 -9 21 -16 44 -16 53 0 17 -48
120 -60 127 -4 2 -10 1 -14 -2z"/>
<path d="M2025 2201 c6 -11 4 -13 -7 -8 -22 8 -30 -3 -16 -20 9 -11 7 -12 -8
-7 -18 7 -18 6 1 -13 14 -14 24 -17 32 -11 7 5 17 7 23 3 6 -4 11 -1 9 6 -4
34 0 40 23 28 l21 -11 -24 -19 c-13 -10 -30 -17 -36 -14 -7 2 -13 -3 -13 -12
0 -13 -8 -9 -33 15 -18 18 -37 29 -42 25 -4 -5 -5 -2 -1 5 4 7 12 10 17 7 5
-4 9 -1 9 5 0 8 -11 9 -32 5 -34 -7 -62 -25 -39 -25 7 0 10 -4 7 -9 -10 -15
71 -216 85 -213 24 6 135 3 165 -4 16 -4 46 -15 67 -26 32 -16 37 -16 37 -3 0
9 5 13 10 10 6 -4 8 -15 5 -25 -4 -13 2 -22 25 -31 16 -8 30 -20 30 -28 0 -7
14 -30 30 -51 17 -21 30 -43 30 -49 0 -6 7 -11 16 -11 8 0 12 -4 9 -10 -3 -5
0 -10 7 -10 11 0 11 -2 0 -9 -11 -6 -10 -11 3 -25 9 -9 14 -23 11 -31 -3 -9 1
-15 10 -15 12 0 15 -6 10 -26 -4 -14 -3 -23 2 -20 10 6 10 3 17 -159 4 -100 3
-114 -18 -152 -18 -36 -20 -46 -10 -63 11 -16 10 -18 -1 -14 -19 7 -55 -12
-87 -47 -14 -16 -30 -29 -36 -29 -6 0 -16 -7 -23 -15 -10 -12 -4 -36 30 -129
l43 -115 51 26 c81 41 127 73 121 83 -6 9 8 14 27 11 19 -3 130 150 159 217
33 81 61 207 57 262 -1 20 2 42 7 49 5 10 4 12 -4 7 -8 -5 -11 2 -10 26 2 18
-3 50 -10 71 -7 21 -10 44 -7 52 3 9 0 12 -9 8 -11 -4 -14 2 -13 18 3 46 -50
168 -66 152 -4 -4 -4 0 -1 8 9 23 -75 142 -144 206 -63 59 -159 114 -241 137
-64 18 -140 26 -140 16 0 -5 -18 -3 -40 2 -36 9 -44 8 -64 -11 -12 -11 -26
-21 -32 -21 -5 0 -2 5 6 10 13 8 13 11 1 22 -11 11 -13 11 -6 -1z"/>
<path d="M1827 2136 c-8 -8 -18 -12 -22 -8 -5 4 -5 1 -1 -6 6 -10 11 -10 21
-2 10 9 13 7 10 -7 -2 -10 -4 -22 -4 -28 -1 -5 -6 -3 -12 5 -8 12 -12 12 -16
2 -4 -10 -8 -9 -17 4 -12 16 -14 16 -33 -3 -11 -11 -28 -23 -38 -27 -14 -5
-16 -9 -6 -19 9 -9 14 -9 20 1 6 11 10 10 15 -4 9 -24 4 -25 -28 -9 -35 19
-36 19 -36 -2 0 -15 -2 -16 -10 -3 -9 14 -14 7 -11 -13 1 -5 -4 -5 -10 -1 -14
8 -108 -90 -132 -138 -66 -135 -79 -188 -79 -323 0 -72 6 -122 22 -180 31
-115 31 -115 42 -115 5 0 8 -6 6 -12 -4 -22 21 -58 37 -52 14 6 21 -18 16 -49
-1 -4 3 -16 9 -27 8 -15 17 -18 43 -13 26 5 30 4 22 -8 -13 -17 -11 -35 6 -77
10 -24 19 -32 31 -28 18 4 22 -5 18 -34 -1 -9 6 -6 20 10 18 21 19 26 7 35
-11 8 -12 16 -6 27 6 11 5 19 -2 24 -8 4 -9 3 -5 -4 4 -7 3 -12 -3 -12 -5 0
-11 -6 -14 -12 -2 -7 -3 -5 -2 5 2 9 -1 17 -6 17 -5 0 -9 -7 -9 -15 0 -8 -4
-15 -10 -15 -5 0 -10 7 -10 15 0 8 -6 15 -12 15 -10 0 -9 3 1 9 7 5 11 13 7
19 -3 5 1 13 10 16 8 3 12 2 9 -4 -6 -9 8 -14 29 -11 4 1 14 -4 22 -10 11 -9
14 -8 14 5 0 9 -8 16 -17 16 -16 1 -16 2 2 16 12 9 21 11 23 4 2 -5 8 -10 13
-10 4 0 6 7 3 15 -4 8 -1 15 5 15 16 0 13 -19 -8 -49 -26 -36 -32 -81 -11 -81
6 0 10 6 9 13 -3 25 1 38 11 32 5 -3 6 -13 3 -21 -3 -9 0 -20 8 -24 7 -5 10
-12 6 -17 -5 -4 -12 -1 -16 6 -7 10 -13 8 -30 -10 -26 -28 -26 -31 0 -49 11
-8 30 -23 41 -32 11 -10 24 -15 28 -13 4 3 10 -1 13 -9 8 -20 143 -69 177 -64
16 2 27 1 25 -3 -10 -15 154 -19 215 -6 30 7 100 28 100 30 0 1 -20 56 -45
122 -30 82 -48 119 -57 116 -39 -14 -156 -3 -201 17 -107 48 -226 208 -260
351 -10 44 -15 51 -32 47 -17 -4 -18 -4 -4 7 12 9 16 29 16 77 -1 87 7 169 14
164 3 -2 17 17 29 42 24 47 84 107 124 125 l23 11 -35 96 c-19 54 -38 98 -43
100 -4 2 -6 9 -3 17 8 20 -12 27 -29 11z"/>
</g>
</svg>
