<?xml version="1.0" encoding="utf-8"?>
<svg xmlns="http://www.w3.org/2000/svg" height="64" width="64" viewBox="0 0 64 64">
  <g>
    <ellipse cy="32" cx="32" ry="32" rx="32" fill="#C62129" />
    <path id="path1" transform="rotate(0,32,32) translate(14,17.2821859121323) scale(1.125,1.125)  " fill="#FFFFFF" d="M25.968994,17.641993L26.065979,17.641993C26.348999,17.641993 26.592957,17.700984 26.792969,17.816981 26.987976,17.934993 27.093994,18.093989 27.093994,18.294001L27.043945,19.152003 24.935974,19.152003 24.983948,18.294001C24.983948,18.105006 25.078979,17.952998 25.271973,17.826991 25.462952,17.704005 25.692993,17.641993 25.968994,17.641993z M19.140991,17.342982C19.395996,17.342982 19.620972,17.398982 19.823975,17.511988 20.023987,17.622004 20.122986,17.748988 20.122986,17.887995L20.122986,21.967004C20.122986,22.105981 20.023987,22.22799 19.823975,22.333977 19.620972,22.438988 19.395996,22.493005 19.140991,22.493005 18.882996,22.493005 18.656982,22.438988 18.454956,22.333977 18.258972,22.22799 18.159973,22.105981 18.159973,21.967004L18.159973,17.887995C18.159973,17.748988 18.258972,17.622004 18.454956,17.511988 18.656982,17.398982 18.882996,17.342982 19.140991,17.342982z M8.8880005,16.709986L8.9389648,21.016991C8.9389648,21.355981 8.9289551,21.639001 8.9129639,21.868005 8.8989868,22.096978 8.9019775,22.267998 8.9389648,22.386987 8.9689941,22.575982 8.9979858,22.774987 9.0309448,22.993005 9.0609741,23.208001 9.2119751,23.382989 9.4889526,23.511987 9.7439575,23.627984 10.042969,23.687981 10.382996,23.687981 10.728943,23.687981 11.064941,23.644982 11.390991,23.562981 11.721985,23.478997 12.020996,23.368005 12.302002,23.221978 12.577942,23.076989 12.784973,22.918999 12.909973,22.756005L12.865967,23.61599 14.685974,23.650994 14.685974,16.709986 12.481995,16.709986 12.481995,21.053002C12.481995,21.366997 12.485962,21.611993 12.504944,21.778985 12.518982,21.951989 12.485962,22.059991 12.407959,22.105981 12.34198,22.292992 12.156982,22.429986 11.839966,22.519006 11.537964,22.605004 11.300964,22.481988 11.135986,22.139001 11.10199,22.09298 11.098999,21.978997 11.116943,21.797997 11.130981,21.61599 11.135986,21.378991 11.135986,21.084985L11.09198,16.709986z M26.032959,16.312983C25.86499,16.314997 25.69397,16.324 25.522949,16.342006 25.06897,16.389003 24.677979,16.498988 24.333984,16.674983 23.909973,16.885981 23.598999,17.174006 23.403992,17.538996 23.212952,17.898982 23.115967,18.403987 23.115967,19.049006L23.115967,21.210992C23.115967,22.122979 23.444946,22.77398 24.100952,23.159997 24.705994,23.521996 25.340942,23.70498 26.013,23.70498L26.208984,23.70498C26.962952,23.670983 27.622986,23.435998 28.198975,23.001977 28.626953,22.687005 28.844971,22.267998 28.844971,21.756005 28.82196,21.590997 28.796997,21.407983 28.743958,21.210992L27.093994,21.210992 27.093994,21.385003 27.093994,21.999993C27.093994,22.187981 27.001953,22.333977 26.817993,22.438988 26.633972,22.545983 26.415955,22.596001 26.16095,22.596001L25.82196,22.596001C25.566956,22.596001 25.359985,22.545983 25.190979,22.438988 25.020996,22.333977 24.935974,22.187981 24.935974,21.999993L24.935974,21.930993 24.935974,21.244988 24.935974,20.329982 28.743958,20.329982 28.743958,19.363002C28.743958,19.001979 28.737,18.652003 28.718994,18.320002 28.704956,17.984004 28.667969,17.723994 28.603943,17.538996 28.536987,17.221003 28.345947,16.965998 28.013977,16.773005 27.689941,16.579982 27.305969,16.446986 26.865967,16.378993 26.646973,16.342006 26.424988,16.320979 26.200989,16.314997 26.144958,16.31399 26.088989,16.312983 26.032959,16.312983z M16.003967,14.286007L16.003967,23.580987 17.823975,23.545983 17.96698,22.967004C18.557983,23.330987 19.09198,23.553002 19.55896,23.635003 20.033997,23.714989 20.428955,23.683984 20.757996,23.536004 21.086975,23.391991 21.339966,23.152001 21.521973,22.816979 21.705994,22.482995 21.797974,22.097985 21.797974,21.665978L21.797974,18.06399C21.797974,17.372981 21.465942,16.881007 20.794983,16.588984 20.572998,16.49499 20.310974,16.446986 20.026001,16.446986 19.494995,16.446986 18.893982,16.628993 18.20697,16.991999L18.20697,14.286007z M2.2039795,14.286007L2.2039795,15.480984 4.4839478,15.480984 4.4839478,23.650994 6.68396,23.650994 6.68396,15.51498 9.3199463,15.51498 9.3199463,14.286007z M5.2449951,11.704007L26.737,11.704007C27.452942,11.704007 28.127991,11.795987 28.770996,11.97598 29.408997,12.156979 29.965942,12.398984 30.445984,12.69598 30.924988,12.993984 31.306946,13.352993 31.582947,13.768001 31.863953,14.183986 32,14.618984 32,15.077999L32,22.790978C32,23.271996 31.863953,23.713006 31.582947,24.11599 31.306946,24.521996 30.924988,24.876 30.445984,25.180993 29.965942,25.488 29.412964,25.723992 28.780945,25.900994 28.149963,26.075005 27.46698,26.165002 26.737,26.165002L5.2449951,26.165002C4.5279541,26.165002 3.8539429,26.075005 3.2229614,25.900994 2.5909424,25.723992 2.0339966,25.488 1.5569458,25.180993 1.0809937,24.876 0.69696045,24.521996 0.41699219,24.11599 0.13598633,23.713006 0,23.271996 0,22.790978L0,15.077999C0,14.618984 0.13598633,14.183986 0.41699219,13.768001 0.69696045,13.352993 1.0809937,12.993984 1.5569458,12.69598 2.0339966,12.398984 2.5909424,12.156979 3.2229614,11.97598 3.8539429,11.795987 4.5279541,11.704007 5.2449951,11.704007z M15.615967,3.7430105C15.362,3.7430105 15.131958,3.8179922 14.936951,3.9649954 14.737976,4.1109913 14.634949,4.2869861 14.634949,4.4979847L14.634949,8.3120096C14.634949,8.4979837 14.72998,8.665983 14.925964,8.8139932 15.113953,8.9589822 15.345947,9.0310037 15.615967,9.0310037 15.870972,9.0310037 16.098999,8.9630106 16.302979,8.8200052 16.501953,8.6829813 16.597961,8.5100076 16.597961,8.3120096L16.597961,4.4979847C16.597961,4.2869861 16.501953,4.1109913 16.302979,3.9649954 16.098999,3.8179922 15.870972,3.7430105 15.615967,3.7430105z M19.930969,2.8479915L21.990967,2.8479915 21.990967,8.4349954C21.990967,8.5769937 22.059998,8.6979959 22.204956,8.8049905 22.35199,8.9089945 22.540955,8.9630106 22.779968,8.9630106 23.005981,8.9630106 23.19397,8.9089945 23.352966,8.8049905 23.513977,8.6979959 23.598999,8.5769937 23.598999,8.4349954L23.598999,2.8479915 25.506958,2.8479915 25.506958,10.016995 23.07196,10.016995 23.115967,9.4379862C22.890991,9.6709869 22.677002,9.8540008 22.469971,9.9809845 22.214966,10.096982 21.935974,10.156003 21.627991,10.156003 21.263977,10.156003 20.957947,10.096982 20.71698,9.9809845 20.509949,9.8779876 20.324951,9.7189911 20.166992,9.5089996 20.110962,9.4139993 20.067993,9.3150003 20.052979,9.2170084 20.033997,9.1189859 20.011963,9.020994 19.974976,8.9269998 19.945984,8.8099954 19.930969,8.6520059 19.930969,8.4509866L19.930969,7.6799905z M15.501953,2.565002C16.09198,2.565002 16.583984,2.6369929 16.985962,2.7770076 17.384949,2.8940118 17.711975,3.0979912 17.96698,3.3919978 18.159973,3.6029959 18.302979,3.8410025 18.398987,4.1130054 18.490967,4.4049976 18.541992,4.798003 18.541992,5.2909839L18.541992,7.1329935C18.541992,7.8030069 18.490967,8.2819803 18.398987,8.5769937 18.362,8.8449991 18.20697,9.1440103 17.915955,9.4729898 17.630981,9.7640045 17.320984,9.9580047 16.985962,10.051999 16.583984,10.193997 16.132996,10.26199 15.615967,10.26199 15.095947,10.26199 14.607971,10.204007 14.18396,10.087003 13.781982,9.9930084 13.482971,9.822995 13.297974,9.5790069 13.105957,9.3879984 12.94397,9.1269815 12.814941,8.7850015 12.722961,8.4679849 12.670959,7.9909952 12.670959,7.3449991L12.670959,5.4469898C12.670959,4.8030079 12.755981,4.2680042 12.909973,3.8500052 13.105957,3.4150078 13.412964,3.1050103 13.847961,2.9169917 14.280945,2.6829827 14.830994,2.565002 15.501953,2.565002z M4.8129883,0L7.3779907,0 8.8439941,3.5319815 10.304993,0 12.865967,0 10.10498,4.7250049 10.10498,10.229001 7.7579956,10.229001 7.7579956,4.7250049z" />
  </g>
</svg>
