<?xml version="1.0" encoding="utf-8"?>
<svg xmlns="http://www.w3.org/2000/svg" height="64" width="64" viewBox="0 0 64 64">
  <g>
    <ellipse cy="32" cx="32" ry="32" rx="32" fill="#C62129" />
    <path id="path1" transform="rotate(0,32,32) translate(14,14) scale(1.125,1.125)  " fill="#FFFFFF" d="M16,10.500048C12.967,10.500048 10.5,12.968048 10.5,16.000048 10.5,19.032047 12.967,21.500048 16,21.500048 19.033001,21.500048 21.5,19.032047 21.5,16.000048 21.5,12.968048 19.033001,10.500048 16,10.500048z M16,8.5000477C20.136,8.5000477 23.5,11.864048 23.5,16.000048 23.5,20.136047 20.136,23.500048 16,23.500048 11.864,23.500048 8.5,20.136047 8.5,16.000048 8.5,11.864048 11.864,8.5000477 16,8.5000477z M4,2C2.8970032,2,2,2.8970947,2,4L2,28C2,29.103027,2.8970032,30,4,30L28,30C29.102997,30,30,29.103027,30,28L30,4C30,2.8970947,29.102997,2,28,2z M4,0L28,0C30.205994,0,32,1.7940674,32,4L32,28C32,30.206055,30.205994,32,28,32L4,32C1.7940063,32,0,30.206055,0,28L0,4C0,1.7940674,1.7940063,0,4,0z" />
  </g>
</svg>
