<?xml version="1.0" encoding="utf-8"?>
<svg xmlns="http://www.w3.org/2000/svg" height="64" width="64" viewBox="0 0 64 64">
  <g>
    <ellipse cy="32" cx="32" ry="32" rx="32" fill="#C62129" />
    <path id="path1" transform="rotate(0,32,32) translate(14,24.1238724657805) scale(1.12500060349735,1.12500060349735)  " fill="#FFFFFF" d="M0.36351183,8.3440135C0.40950209,8.3440135,0.44752717,8.3830149,0.45649931,8.4370148L0.75551179,10.272997C0.75752619,10.287997,0.75752619,10.303994,0.75551179,10.318994L0.45649931,12.059984C0.44752717,12.112976 0.4085255,12.150978 0.36351183,12.150978 0.31849822,12.149979 0.27949658,12.110977 0.27150091,12.057977L0.0015106213,10.316995C-0.00050354043,10.302995,-0.00050354043,10.288996,0.0015106213,10.274996L0.27150091,8.4390138C0.27949658,8.3850138,0.31752166,8.3450129,0.36351183,8.3440135z M1.5345074,7.3020237C1.5895309,7.3020237,1.6355211,7.3620208,1.6455307,7.44502L1.9995058,10.286997C2.0025271,10.309999,2.0025271,10.334993,1.9995058,10.357995L1.6455307,13.05297C1.634514,13.13497 1.5885238,13.193968 1.5355145,13.193968 1.4815287,13.192969 1.4355079,13.132971 1.4255287,13.048972L1.1065268,10.354997C1.1035056,10.332994,1.1035056,10.311998,1.1055197,10.289995L1.4255287,7.4480183C1.4345314,7.3640197,1.4815287,7.3030231,1.5345074,7.3020237z M5.3575236,6.82603C5.4145309,6.82603,5.4625351,6.8970287,5.4735214,6.9970262L5.8465396,10.390992C5.8495304,10.418991,5.8495304,10.447991,5.8465396,10.475991L5.4735214,13.692964C5.4625351,13.790962 5.4135238,13.861961 5.3585307,13.861961 5.3005473,13.860961 5.2525426,13.788964 5.2425329,13.688966L4.9055258,10.471993C4.9025351,10.445992,4.9025351,10.420998,4.9055258,10.394998L5.2425329,7.001024C5.2525426,6.9000266,5.3005473,6.8270295,5.3575236,6.82603z M2.8055095,6.7150309C2.8635239,6.7150309,2.9115283,6.7860296,2.9225148,6.8850277L3.2955329,10.258997C3.2985233,10.286997,3.2985233,10.315995,3.2945258,10.343995L2.9225148,13.541964C2.9105212,13.639962 2.8625168,13.709962 2.806517,13.709962 2.7495095,13.708963 2.7015356,13.636964 2.6915258,13.537966L2.3545186,10.338998C2.3515278,10.313997,2.3515278,10.287997,2.3545186,10.262995L2.6905188,6.8890255C2.7005285,6.7880285,2.7495095,6.7150309,2.8055095,6.7150309z M4.0615274,6.5630319C4.1185347,6.5630319,4.1665389,6.637029,4.1775252,6.7400248L4.5505435,10.261996C4.5535342,10.289995,4.5535342,10.319993,4.5505435,10.348993L4.1775252,13.686967C4.1655318,13.788964 4.1175276,13.861961 4.0625345,13.861961 4.0055276,13.860961 3.9575233,13.785965 3.9465367,13.682962L3.6095299,10.344995C3.6075155,10.317994,3.6075155,10.291994,3.6095299,10.265993L3.9465367,6.7440298C3.9565162,6.6400268,4.0045206,6.5640314,4.0615274,6.5630319z M6.6525432,4.740043C6.7615525,4.7540429,6.8185293,4.8410476,6.8295461,4.9700444L7.1425358,10.213C7.1455571,10.248995,7.1455571,10.285998,7.1425358,10.321992L6.8515493,13.649965C6.8445303,13.864959 6.6995408,13.901962 6.6435405,13.901962 6.5855266,13.901962 6.4605257,13.864959 6.4445345,13.638963L6.2015525,10.316995C6.1985313,10.283999,6.1985313,10.250994,6.2015525,10.217997L6.464554,4.9600423C6.4815527,4.764045,6.5965435,4.7420495,6.6525432,4.740043z M7.9485394,3.5660577C8.0575487,3.5790582,8.1315548,3.6330586,8.1555416,3.8050542L8.4385625,10.213C8.4415533,10.248995,8.4415533,10.285998,8.4385625,10.321992L8.147546,13.649965C8.1405574,13.864959 7.9945604,13.901962 7.9395367,13.901962 7.8815533,13.901962 7.7575594,13.864959 7.7405612,13.638963L7.4975487,10.316995C7.494558,10.283999,7.494558,10.250994,7.4975487,10.217997L7.7365328,3.7780538C7.7535616,3.583056,7.8925396,3.5680566,7.9485394,3.5660577z M13.253588,3.0800622C13.362567,3.0940619,13.50957,3.1310642,13.543568,3.3310592L13.77358,10.211993C13.777578,10.248995,13.777578,10.285998,13.77358,10.321992L13.515582,13.679963C13.48656,13.898963 13.299578,13.901962 13.244585,13.901962 13.186571,13.901962 12.980577,13.880966 12.964585,13.653962L12.734574,10.314996C12.731583,10.282,12.731583,10.248995,12.734574,10.215998L12.956559,3.3030598C12.973558,3.1070624,13.197588,3.0810616,13.253588,3.0800622z M9.2445661,2.9590612C9.3535453,2.9720614,9.44757,3.0320661,9.4715568,3.2040618L9.7335521,10.213C9.7375499,10.248995,9.7365429,10.285998,9.7335521,10.321992L9.4435417,13.649965C9.4365531,13.864959 9.2905561,13.901962 9.2345563,13.901962 9.1775495,13.901962 9.0525486,13.864959 9.0355503,13.638963L8.7935449,10.316995C8.7905542,10.283999,8.7905542,10.250994,8.7925378,10.217997L9.0005466,3.1990645C9.0175449,3.0030594,9.1885664,2.9600606,9.2445661,2.9590612z M11.917552,2.8780608C12.025555,2.8910609,12.157575,2.952065,12.180555,3.1240604L12.437575,10.211993C12.440565,10.248995,12.440565,10.285998,12.437575,10.321992L12.179578,13.679963C12.150556,13.898963 11.963574,13.901962 11.907573,13.901962 11.850566,13.901962 11.644571,13.880966 11.627573,13.653962L11.397561,10.314996C11.395578,10.282,11.395578,10.248995,11.397561,10.215998L11.620554,3.1000583C11.637552,2.9050608,11.860576,2.8790601,11.917552,2.8780608z M10.580571,2.7150674C10.68955,2.7290676,10.784552,2.7890644,10.807562,2.9620595L11.070563,10.213C11.073554,10.248995,11.073554,10.285998,11.070563,10.321992L10.820563,13.669961C10.792547,13.888961 10.627568,13.901962 10.571569,13.901962 10.513554,13.901962 10.345555,13.874961 10.328555,13.649965L10.129549,10.316995C10.126558,10.283999,10.126558,10.250994,10.129549,10.217997L10.336552,2.9310618C10.35355,2.7350641,10.524571,2.7170666,10.580571,2.7150674z M14.60357,1.8200717C14.717584,1.833072,14.878596,1.8860729,14.914576,2.0870676L15.15057,10.211993C15.154568,10.248995,15.154568,10.285998,15.15057,10.321992L14.862574,13.690965C14.831568,13.910964 14.662591,13.934966 14.604577,13.934966 14.543573,13.93296 14.31359,13.896964 14.295585,13.670968L14.055563,10.314996C14.053579,10.282,14.053579,10.248995,14.055563,10.215998L14.30059,2.079072C14.318565,1.884074,14.543573,1.8210711,14.60357,1.8200717z M15.959595,1.0670801C16.083589,1.08108,16.245576,1.1240789,16.284578,1.3230747L16.554599,10.211993C16.55759,10.248995,16.55759,10.285998,16.554599,10.321992L16.239595,13.665963C16.206575,13.884963 16.011596,13.901962 15.948578,13.901962 15.882598,13.901962 15.661589,13.886962 15.641569,13.660966L15.365598,10.314996C15.362577,10.282,15.362577,10.248995,15.365598,10.215998L15.643583,1.3100819C15.662596,1.1140768,15.894591,1.0680796,15.959595,1.0670801z M19.388597,8.8841419E-05C20.011615,0.0030869556 20.758598,0.093090096 21.640622,0.32708928 21.640622,0.3270891 25.820634,1.5410749 26.590627,6.2790301 26.590627,6.2790301 29.668645,5.1860454 31.42967,7.8790143 31.42967,7.8790143 33.110679,10.753988 30.700662,12.960968 30.700662,12.960968 29.688665,14.114957 27.379632,13.992964L21.933622,13.992964 21.920621,13.963965C21.874601,13.982962,21.824613,13.992964,21.771604,13.992964L17.128606,13.992964C16.904576,13.992964,16.723575,13.809967,16.723575,13.582964L16.723575,0.97008094C16.723575,0.86608562,16.7616,0.77208474,16.824588,0.7000868L16.823581,0.7000868C16.861577,0.65608081 16.907598,0.62208459 16.958593,0.59808281 17.248603,0.40108591 18.018594,-0.0069074595 19.388597,8.8841419E-05z" />
  </g>
</svg>
