<?xml version="1.0" encoding="utf-8"?>
<svg xmlns="http://www.w3.org/2000/svg" height="64" width="64" viewBox="0 0 64 64">
  <g>
    <ellipse cy="32" cx="32" ry="32" rx="32" fill="#C62129" />
    <path id="path1" transform="rotate(0,32,32) translate(14,19.9180635213852) scale(1.125,1.125)  " fill="#FFFFFF" d="M22.154999,0C24.042999,-1.7628554E-07 25.749008,0.65798962 26.947006,1.7119909 28.442001,1.4689947 29.848007,1.0179904 31.115997,0.39599609 30.626007,1.662995 29.585007,2.724992 28.229004,3.3959822 29.557007,3.2650008 30.822998,2.9739849 32,2.5419931 31.119995,3.6299912 30.007004,4.5850088 28.723999,5.3489863 28.737,5.581988 28.742996,5.8159968 28.742996,6.0510127 28.742996,13.215994 22.139008,21.478999 10.063995,21.478999 6.3560028,21.478999 2.9059982,20.581018 0,19.042016 0.51399994,19.092004 1.0370026,19.118005 1.5660019,19.118005 4.6419983,19.118005 7.4729996,18.251001 9.7189941,16.796991 6.8470001,16.753015 4.4220047,15.184989 3.586998,13.030996 3.987999,13.094992 4.3990021,13.128988 4.8219986,13.128988 5.4209976,13.128988 6.0009995,13.062002 6.5510025,12.938009 3.5480042,12.439993 1.2850037,10.249013 1.2850037,7.6219975 1.2850037,7.5989873 1.2850037,7.5760075 1.2860031,7.5540044 2.1709976,7.9600102 3.1839981,8.2029917 4.2600021,8.2320139 2.4980011,7.2589909 1.3390045,5.5999934 1.3390045,3.7180037 1.3390045,2.724992 1.663002,1.7929999 2.2280045,0.99299669 5.4660034,4.2729971 10.302994,6.4309875 15.759995,6.6580078 15.647995,6.2610046 15.589996,5.8470027 15.589996,5.4219844 15.589996,2.4279947 18.529007,-1.7628554E-07 22.154999,0z" />
  </g>
</svg>
