<?xml version="1.0" encoding="utf-8"?>
<svg xmlns="http://www.w3.org/2000/svg" height="64" width="64" viewBox="0 0 64 64">
  <g>
    <ellipse cy="32" cx="32" ry="32" rx="32" fill="#C62129" />
    <path id="path1" transform="rotate(0,32,32) translate(15.1863048520815,14) scale(1.12500026822097,1.12500026822097)  " fill="#FFFFFF" d="M10.808659,8.3046933C10.364662,8.2936765 9.9956601,8.6396886 9.6276668,8.9817039 9.5076717,9.0926973 9.3936742,9.2097036 9.2846664,9.3317138 8.7956708,9.8837224 8.4866823,10.517703 8.5816673,11.266735 8.6846784,12.073722 8.768678,12.896761 9.0046685,13.668743 9.6546739,15.799781 10.966663,17.511809 12.609643,18.977829 14.118637,20.323824 15.771628,21.447861 17.760615,21.954857 18.398611,22.116846 19.067614,22.192865 19.726607,22.222864 20.71061,22.266873 22.104599,21.280836 22.454588,20.362826 22.473599,20.313845 22.480587,20.256838 22.47659,20.204834 22.448592,19.769833 22.424589,19.334829 22.379591,18.90181 22.370589,18.813826 22.296599,18.689831 22.221602,18.659802 21.119604,18.224798 20.013607,17.799807 18.905611,17.378811 18.62862,17.273798 18.379614,17.321804 18.156624,17.537809 17.81962,17.862795 17.449627,18.154822 17.127623,18.493815 16.920622,18.710829 16.743622,18.750807 16.510622,18.571819 15.891637,18.09281 15.250635,17.638794 14.657636,17.128807 13.727648,16.329786 12.957649,15.384768 12.276653,14.365773 12.086652,14.081773 12.078657,13.882765 12.354656,13.641765 12.648645,13.38575 12.871651,13.049748 13.158652,12.785736 13.524647,12.449734 13.528645,12.095725 13.350652,11.666735 13.013648,10.853706 12.698648,10.030697 12.386653,9.2067128 12.08566,8.4137031 12.092649,8.4106818 11.128664,8.3726875 11.017658,8.3277036 10.910664,8.306677 10.808659,8.3046933z M14.824642,2.7386147C20.630608,2.6766328 25.774575,6.7116557 26.978564,12.628752 28.101557,18.1518 25.153576,23.897873 20.003613,26.1649 16.442629,27.732943 12.902657,27.641939 9.397672,25.948895 9.2666763,25.885904 9.0606683,25.898905 8.918671,25.952923 7.5276879,26.484911 6.1416944,27.03393 4.7546938,27.577942 4.6856941,27.60492 4.6146954,27.626925 4.488704,27.670931 4.900689,26.215925 5.2886871,24.823879 5.6936987,23.435862 5.7576941,23.219887 5.7226904,23.078863 5.5816849,22.909855 3.5256971,20.455845 2.5637122,17.617798 2.692709,14.426779 2.918706,8.7906915 7.1076768,3.9846324 12.660653,2.9516302 13.387655,2.8156115 14.110642,2.7466105 14.824642,2.7386147z M15.027644,0.65259045C13.511647,0.64758545 11.963651,0.88559497 10.43267,1.3935971 4.7967008,3.2636153 0.99771191,8.2646838 0.66871895,14.195758 0.47972484,17.626801 1.4417096,20.736855 3.4877027,23.50288 3.6217049,23.684889 3.6667026,23.835892 3.6087044,24.065874 3.0327037,26.331925 2.4717177,28.600935 1.8907121,30.931957 2.0687202,30.866955 2.1997159,30.820963 2.3287133,30.769968 4.4757036,29.931946 6.6256851,29.099934 8.768678,28.248942 9.092666,28.120949 9.3666662,28.107948 9.6936754,28.243937 10.784658,28.695938 11.92166,28.980944 13.093649,29.126942 16.641632,29.56695 19.924603,28.820938 22.890589,26.835928 28.316553,23.204872 30.575543,16.49379 28.452553,10.296723 26.441563,4.4286381 20.976599,0.67160308 15.027644,0.65259045z M14.977641,0.00057441923C15.471642,0.0045720907 15.969625,0.03057339 16.469622,0.078578287 22.973597,0.69159234 28.495552,5.7646533 29.62755,12.18673 30.432553,16.751789 29.396548,20.87385 26.467564,24.461876 24.134585,27.318937 21.101599,29.060932 17.455624,29.688961 14.754635,30.153963 12.117657,29.886961 9.5606654,28.895952 9.3306707,28.806931 9.1406701,28.805954 8.9116672,28.895952 6.3616942,29.900969 3.8067013,30.89497 1.2527151,31.891991 1.172714,31.922966 1.0907137,31.949976 0.94772442,31.999992 1.2197108,30.913983 1.4747141,29.891966 1.7307094,28.869951 2.1237124,27.296932 2.5217052,25.725899 2.9027148,24.149891 2.9347122,24.015886 2.8937121,23.821884 2.8137108,23.707869 0.89271684,20.997843 -0.12728149,17.982823 0.012732292,14.667779 0.27272533,8.4966813 3.246707,4.0326372 8.794679,1.3375964 10.755666,0.38558877 12.835656,-0.017400837 14.977641,0.00057441923z" />
  </g>
</svg>
